<?xml version="1.0" encoding="UTF-8"?>
<svg version="1.1" viewBox="0 0 2016 1668" width="1280" height="1280" xmlns="http://www.w3.org/2000/svg">
<path transform="translate(0)" d="m0 0h2016v1668h-2016z" fill="#020229"/>
<path transform="translate(1641,1277)" d="m0 0h16l10 3 4 3v5l-1 1 20 2 4 3 1 11v154l13 2 1 1v11l-3 7-5 5-9 7-6 2-10 1h-232l-12-3-8-6-2-4h-2l-4-10v-11h16v-168l1-1h54l53 1 7 2-1 4-2 1h-104l1 3v52l7-4 8-6 5-3 7-1v-8l3-8 6-4h7l6 4 3 3v2h17l9-2 7-7h5l-1 5-7 8-1 5 16 7 4 1 1-12h2l1-4 9-3 6-12-1-5-1-7 3-5 10-6 5-1v-2l6-1 3 3 5 3h15l6-7 2-1 11 1-1-4 5-4z" fill="#032B48"/>
<path transform="translate(1555,137)" d="m0 0h17l10 3 9 4 1 2 5 1 6 6 3 5 6 3 2 2 19 2 14 5 12 9 8 11 4 9 2 10v15l15 6 9 7 6 8 4 9 1 5v8l-2 9-6 10-9 8-5 5-5 2-19 3h-6l-1 4-11 6-11 2v2h-2v22l-3 17-1 2h-2l-2 5-6 8-10 6-10 2-20 1h-47l-13-2-9-5-7-7-4-7v-3h-2l-2-5h-5l-2 2 1 9-4 2h-11l-1 4-3 1v2l-6 2-8-1-6-4-1-4v-7l2-4v-5l-5-2-9-7-6-9-4-8-2-7v-16l3-10h-2l-5-9v-2h-2l-2-6v-16l4-11 6-9 3-4 12-6 7-1 1-19h2l1-7 7-14 9-10 9-6 13-5 19-1 7-8 9-8 16-8 7-2z" fill="#02032A"/>
<path transform="translate(430,667)" d="m0 0h28l4 1 5 2-1 2h-2v2l3 1h-30l-15 2-22 5-16 7-12 7-5 4-12 12-3 5h-2l-2 5-6 10h-2l-1 6-6 17-2 9v8l6 9 1 3 1-10 1-1 1-11 1-2h2l1-10 2-4h2l2-6 7-11 11-12 10-9 13-8 14-6 18-4 10-1 28 1 1 4-10 2-1 1-16 1-1 19-1 2h-5l-1-1v-19l-17 4-16 7-12 8-10 9-8 10-2 5h-2l-1 6-1 2h-2l-2 10h-2v13l9-3 15-4 8-12 10-9 9-6 7-3 15-3 15 1 16 4 11 7 7 8 5 6 6 12v2l5 1 2-6 11-12 9-6 13-5 6-1h13l7 6h2l-5-9-3-8-14-15-14-9-17-7-7-2 4-1-4-8 12 3 12 5 12 7 8 6 5 4 7 8 9 12 8 16 4 11 4 21 3 18 5 21 4 11v12l-7 11-7 10-9 17-14 34-6 5-3 1h-9l-15-4-20-7-8-3-7-2-1-2-3 1-7-3h-3v16l-2 3h-7l-7 3-9 6-17 9h-5v2l-4 3 1 4 9 9h13l6 4 3 5v7l-3 8-6 4h-9l-6-3-4-6v-13l-16-16-5-2-9 1-19-3-12-4-14-7-13-10-10-10-7-10-8-16-4-13-1-5v-21l4-20 6-15 6-11 6-8 3-3v-5l-1-3-3-1-1-5-3-1v-17l1-1 1-7 3-7 5-13 5-11h2l2-5 1-3 2-1 1-3 8-7 4-6 7-4 10-7 15-8 14-5 17-4z" fill="#042D4C"/>
<path transform="translate(410,152)" d="m0 0h9l13 4 8 6 1 3 3 3 4 11v199l1 5 1-134 2-2v3l4-1 1-4 1-16 7-1 3 3 1 15 15 2 8 2 4-1-6-4v-2h-2l-5-9v-9l-7-9-1-9 4-5 6-3h8l7 5 2 5-1 8-5 5h-2l-2 12 4 4 5 3 7 7 1 7h2l4 4 11 7 10 8v6l1 3 4 2 6 7 9 21 1 26-2 9-5 8v2h5l20-20 3-5v-35l-6-5-3-6 1-7 6-7 2-1h9l1 3 5 1 4 8-1 7-7 8v31l-2 9-9 10-20 20-3 1-14 1 3 3 2-1h6l6 4v2l4 2 2 5-1 6-5 5-4 3-9 2-13 13-2 1h-36l-7-5-8-1h-10l-16-3-11-3-7 5-16 4h-8l-10-3-8-6-7-8-4-10v-3h-17l-12-4-9-6-5-3-4-6v-2h-2l-2-4v-4h-2l-1-2-1-19-2-4-7-5-1-4h-2v-3l-3-1v-3h-2l-6-13-3-17 2-14 1-4h2l2-9 4-5 5-7 7-6 2-13 2-7 4-10 6-9 8-8h3v-2l8-4 7-2 17-1 7-16 4-5 11-7z" fill="#280347"/>
<path transform="translate(990,1248)" d="m0 0h8l8 4 5 5-1 3h3l-2 15h-1l-1-8v77l2 2 1 9 1 10 4 6 1 2h-3l-1 2-4-2-7 6-7 2-9-1-8-7-4-6-12-3-8-4-11 7-12 6-6 2h-14l-13-4-10-5-1 3-1 55v46h107l1-4-1-18-11-2-3-3-1-6v-8l4-5 4-3 1-16 4-2 2 2 1 15v-15l2 2v3l6-1 1-4 8-11 4-5h2l2-4 4-4-5-1 4-1h5l7-4 4-5h2l1-6 10-2 4-3h-12v-1l10-2 5-3 4-6 1-3v-7l-4-6-1-5v-3l5 2 5 4 3-3 3-6 1-4v-8l-5-10h-5l-5 5-7 1v-3l2 1v-2l-2-1 6-4 4-7-1-9-6-8-5-3-4-1v-2h4v-3l7 3 5 4 6 10 2 9 7 10 4 10v10l-4 9-7 10-2 11-3 5-2 5-4 3-2 3h22l17 4 18 8 9 6v2l6 3v-76l-31-1-4-2v-5l4-3h32l9 1 2 13 1 73v32h2l6 13 2 11v9l-5 10-5 4-1 4 11 1 3 2 1 8-4 11-10 8-9 4-5 1h-37l-36-1v-1l8-1-1-1-41-1v-1l98-1 11-1 8-4 6-5 2-9h-108l-1 7h-2v2l-4 2-45 1-5-2-3-4-1-5-44-1-25 1h-39v5h2l1 5 4 2 7 3 4 1 52 1 58 2 8 1v3l-3 1-30 1h-88l-7-2-3-1v-2l-4-1-5-6-4-9-1-11 4-2h12l-1-49-1-71-2-16v-14l2-17 2-3 5-3 4-4 11-7 12-4h17l12 4 6 4h2l3-13 6-9 8-5 3-1h9l2-6 5-6z" fill="#270346"/>
<path transform="translate(1008,145)" d="m0 0 14 2-4 4h-11l-13 4-1 3 5 4 12 8 10 8 11 12 8 17 3 10 2 4 1 7-1 3 3 1h3l4-2h5l5 4 10 19-2 5-6 7-1 2-1 14 3 5 1 1h5l5-3 8-2h14l13 4 8 6 2 4v1l9-1 7-5 8-13v-8l-3-11-4-8v-2l-4-2-11-5h-10l-10 6-7 7-5-1 2-6 8-8 10-6 1-2v-15l-4-13-7-11-9-7-9-4-7-2h-15l-10 5-6 4h-2v-2l-4 1 6-8 7-5-2-5-4-4v-2l-2-5 6 2 7 7 3 4 21 2 16 7 8 6 9 13 5 15 1 17 2 2 11 4 8 6 5 5 5 8 3 9v12l-4 11-9 10-4 5h-2l1 10 2 7v11l-5 16-6 11-6 7-10 6-3 2h-7l-3 1 4 4 5 2h6l7-7 7-2 6 3 6 7 1 5-3 9-8 4h-6l-9-4-1-3-13-2-6-4-7-8-4-3-7-4-6-1-15-8v20l12 11 11 2 5 3 3 5v11l-8 6-2 1-10-1-4-4-3-6v-10l-4-6-5-3-7-8-1-3v-33l3-9-3-7v-8l2-5-7 1-6 5-2-1v-2l11-6 14 2-4-5 7-2 6-12-2-5-6-7-1-2v-20l7-8 2-2-1-6-6-10-4-1-4 1-4-1-5 1 3 3v10l-1 3 3 2v2l-5 1-4 8v9l-2 6-2 7h-2l-2 4-3 1v2l-8 4-4-1v2h-2l-1 3-3 2 5 2 2 4-1 2h-8l-2-3-2-1-8 3 3 10 3 11 10 2-5 5-9-1-3-5-2-10-8-5-5-2h-8l-11 3-7-2-20-4-6-3-7-1-18-1-4-2-9-2-9-4-8-7-5-8v-4h-2l-1-4v-18h2v-6l3-1v-5l8-7 2-5 2-19 5-16 8-14 10-11 5-5 11-8 14-6 17-4h25l12-6 13-3z" fill="#032B48"/>
<path transform="translate(1555,664)" d="m0 0h25l3 1 1 3v22l33 1 14 3v2l9 3 9 7 7 8 5 10 2 7v18l-3 10-6 10-9 9-8 5-10 4-14 1 1 1h11l1 5-2 12-2 4v9l-3 6-6 2 20-2 10-3-1-2-15-4-4-3 1-5 12 2 12 5 5 4 1 3-3 5-9 4-10 2-37 4 13 1v3l-5 7-8 7-9 8-16 8-13 4h-2l-1 4-2 2-12 3h-10l-11-3-4-2-1-5-12-3-6-2 1 49 4 12 5 9 10 11 7 8 17 17 13 6-4 2-1 2-6-1-9-5-8-8-8-7-12-13-11-16-8-24-12-6-8-9-4-9v-12l4-9 6-8 3-3-1-4-9-10-10-16-4-10v-6l-5-2-4-3v-3h-2v-3h-2l-1-2v-7h2l2-5 7-7 1-9 8-19 7-13 6-4 4-11 3-5h2l2-4 7-8 10-7 11-4 18-2h12l14 1v-27z" fill="#042A49"/>
<path transform="translate(997,667)" d="m0 0 17 2-2 4-12 2v22l1 9 5 4v6l-6-1-4-3-3-5-1-3v-27l-11 3-2 3-1 17-4 2-3-3-1-6v-5l-5 3-8 11-7 14-2 8-1 10v41l2 21 5 12 9 12 19 19 4-1 6-9 5-8 1-4h-2l-1-7h2v-2l4-1 11-1 4-2v-2l17-8 18-6 12-2 2-3v-54l-3-14-6-15-9-10-5-5 2-5 5 1 8 7 8 11 6 12 4 17 2 8 10 6 6 7 3 6 1 10-3 9-6 9-4 2-1 3 13 2 16 8 12 9 10 9 9 12 6 12 4 11 3 17v15l-3 15-2 8-4 1-4-2-2-4v-3h-2l-2-3-3 1 6 13 5 25 5 31 2 9-1 9-6 5-4 1h-52l-80-1 2-2 29-1 1-3-32-1v-1l-52-1 38 1 4 2-4 1v2h9v1l-15 1h-119l-2-2h49l1-4v-11l1-3v-14l2-19 1-17v-39l-3-3h-6l-1 2-11 1 3-3 14-6 36-12 5-2 3-5 5 1 1 10-3 3-40 13v32l-1 26-3 38 1 3h73l38 1h51l8 1-1-17h-9l-4 1-13-1-1 4-2 1h-7l-4-3-1-4-12-1-4-1-7 2-5-1-2-1-1-3-3 4h-8l-1-1-1-16h2l1 15h6l1-16v-20l-1-5h-2v-2l-15 1-6 3-2-6-3-4v-2h-2l-2-4v-4h-8v-1l66-1 9 4-1-4-2-3-6-2-23-1v-1l-44-1 4-3 2-29-1-5-5-4-9-11-11-11-7-10-5-10-5-15-10-6-7-8-4-9v-8l4-10 8-8 9-5 4-21 6-13 6-9 8-9 14-9 11-5z" fill="#270346"/>
<path transform="translate(501,1241)" d="m0 0 9 1 7 5 2 5-1 7-8 7-4 2 9 5 2 4v4l2 1-1 2h2v-2l9-5 9 1 5 4 4 7-1 8-6 8 5 8 4 19 1 14h-2v2l-6-2-2-1 1 5 2 2v4l4 2 7 8 9 13 1 2v10l-4 6-11 14-6 7-8 7-13 11-22 15-16 8-10 4-1-2-7 2-2-1 2-5 7-4 1-2h2v-2l-9 5-12 7v-3l14-9 7-6 11-15 3-5v-3h-5l-3 2h-8l-4 1-2 4-3 2-10-1-7-1-5 3-5 1 1-3 10-5 5 1 6 2 5-1v-3l-10-1-2-1h-7l-10 6-6 5-1 9-1-2h-2l2-11 7-6 8-4 1-3h-7l-9-2h-16l-2-1v-2l-6-2-7-7-3-7-1-5v-16l-5 1-6-2-1-5 1-1h5l2 2-1-3 2-4v-2l-4-1-6-3-5 1-3 1-2 5-2 7 4 2 5 6v19l-4 6-4 4 1 5 5 9 5 1 4-2h6l15 8 2 2 3 12 7 3-1 2 10 1v1h-19l-2-1-5-15-9-5h-8l-6 2-6-1-7-10-4-8v-6l4-5 5-5 1-3-1-11-7-8-2-3 1-7 8-14 3-4h9l6 1 1-17 2-3v-11l-2-1v-2l-9 3v2l-9 5-7 6h-2l-2 4-6 7-10 18-5 18v26l5 18 8 15 12 14 7 6 2 1v2l6 2 14 7 10 3 18 2v1l-8 1-1 2h9v1h-14l-15-2-22-6-13-5-20-10-10-7 3-1 9 6 4 1-5-6-10-6-2-3 5 2 22 13 4 1-7-8-10-16-6-15-3-13-1-7v-13l3-16 6-16 8-14 9-10 1-2-4 1-20 11-11 8-4 2 3-6-7 4-3-1 14-11 16-10 24-12 5-2 21-5 17-2-8-1 3-2 4-1h7v-21l3-5 4-2 2-2 6-7 6-5h2v-2l57-1 4-6z" fill="#260245"/>
<path transform="translate(1591,151)" d="m0 0 7 4 8 7 3 4h2l-1-6 4 3 19 2 14 5 12 9 8 11 4 9 2 10v15l15 6 9 7 6 8 4 9 1 5v8l-2 9-6 10-9 8-5 5-5 2-19 3h-6l-1 4-11 6-11 2v2h-2v22l-3 17-1 2h-2l-2 5-6 8-10 6h-2v-4h-3v-2l8-5h2l1-4 5-10 1-3v-29l-1-43-4-9-2-4-10-6h-10l9 3 7 5 4 6 4 15-2 59-1 4-2 1-3 6-5 4v-4h-7l2-1 2-4 3-5v-29l-14-2-3-1-1 17-1 3h-8l-1-1v-5l2 4 4-2v-19l1-17-3-1-2 1-1 12-3-1-1 25h-2l-1 3h-5l-1-1v-14h-14l-2-1v13l-1 2-5-1-1-2v-21l3-8 8-7-4-7-10-13v-2l-12-1-5 4-2 4v67l4 8 6 3 32 2-2 3v2h-26l-11-2-8-7-3-8-1-33 1-32 2-8 7-8 6-3h38l8 1v3l-6 1h29l7 3 4 5 2 6 1 40 2 7v-51l-3-6-4-5-8-3-11-1-56-1 4-4v-2l-2-1 5-1 65-1 7 3 3 1-1-4-7-3-15-2v-1l-60-1 1-4-2-3 4-1v-1l-4 1-2-4-1-10-7-8-1-6 2-5 5-5h9l4 1 1-2h3l2-6 8-11 10-9h2v-2l13-8 13-6 7-1-3-3z" fill="#270347"/>
<path transform="translate(412,158)" d="m0 0 12 1 9 5 7 8 3 7 2 8v187l-3 15-4 7-5 5-5 4-6 2h-10l-12-5-8-9-3-9v-9l5-10 5-8h-5l-7 8-4 10-4 1-17-1-2-1v-2l-4-1-5-2v-2l-4-2-6-7v-2h-2l-3-10v-16l3-7 6-9h2l1-3 7-3 1-5-9 2-9 5-2 4-5 8-4-1-10-13-4-7-2-12v-10l2-13 7-13 6-7 6-1 1 5 3 1 6 7 4 3 4 2h5l1-1v-5l-6-2-5-5-5-4-1-3-2-1-1-5v-18l4-9h2l2 2 2 9 7 12 5 6 3 2v2l5 2 9 4 8 2h13l20-4 1 5 5-1-2-9 4-7 6-8 4-11 1-5v-10l-4-16-7-11-4-3v-2l-6-3v-2l-3-1z" fill="#020229"/>
<path transform="translate(1024,1245)" d="m0 0 7 2 6 3v2h2v3h2l2 4 2 1v2h7l1 4-5-1v2l6 1 6 5 5 9v8h-2l-2 5-5 5v2l-2 1 7-1 5-5h5l5 8 1 3v8l-3 8-3 5-3 1-7-6-2 1 6 12v7l-3 6-5 5-4 3 4 1-5 4-10 1-1 6-5 5-5 4-8 1h-3l4 1-2 4-6 5-10 13-3 6-6 1-1-3v15l-2-1-1-16h-4l-1 16-7 6-1 2v14l3 1v2l11 1 1 1 1 19-2 4h-108v-47l1-55 2-4 15 7 8 2h14l13-5 13-8 3-2 11 5 9 2 4 5 6 7 6 2 9-1 5-3 6-4 3 2 3-2-4-5-2-6v-9l-3-8v-78l2 1 3-7h-3v-4l-2-2 3-1 3-4z" fill="#02022A"/>
<path transform="translate(990,1248)" d="m0 0h8l8 4 5 5-1 3h3l-2 15h-1l-1-8v77l2 2 1 9 1 10 4 6 1 2h-3l-1 2-4-2-7 6-7 2-9-1-8-7-4-6-12-3-8-4-11 7-12 6-6 2h-14l-13-4-10-5-1 3-1 55v46l66 1 60 2-4 4 2 1-27 1 2 3 24 2 2 4h-28l-4-3-1-5-44-1-25 1h-39v5h2l1 5 4 2 7 3 4 1 52 1 58 2 8 1v3l-3 1-30 1h-88l-7-2-3-1v-2l-4-1-5-6-4-9-1-11 4-2h12l-1-49-1-71-2-16v-14l2-17 2-3 5-3 4-4 11-7 12-4h17l12 4 6 4h2l3-13 6-9 8-5 3-1h9l2-6 5-6z" fill="#032B48"/>
<path transform="translate(999,666)" d="m0 0h17l6 2 7 2 6 1 3 3 5 1 1 3 3 2-4 4 1 3 8 7 6 8 6 16 2 11v54l-3 4-16 3-21 8-8 4h-2v2l-4 3-13 1h-2v2h-2l1 7h2l-1 6-8 11-3 5-5 1-14-15-7-7-9-14-3-8-2-21v-41l2-15 6-14 8-11 5-5 3-1 1 9 1 4 5-1 1-17 3-4 6-2h5l1 3v24l1 6 3 1 3 3 5 1v-5l-5-4-1-10 1-21 4-2 7-1 2-2-15-2z" fill="#02022A"/>
<path transform="translate(1641,1277)" d="m0 0h16l10 3 4 3v5l-1 1 20 2 4 3 1 11v154l13 2 1 1v11l-3 7-5 5-9 7-6 2-10 1-109-1v-1l30-1 10-1-4-1-31-1v-1l111-1 10-5 6-6 1-6-4-1-89-1h-13v-1l9-1h10v-2l-38-1-4-1-13-1v-1l23-1h22l81 1-1-16v-88l-1-1-10 4-5 3-8 1h-6l-2-3 2-1-8 1-1 5-3 5v7l1 7-4 5-10 6-10 1-8-6h-12l-5 1 4-4h15l1-2h-19l-1-2h20l6 4v2l6-1 6-7-1-5-2-2v-5l3-3 2-4-1-5-7 2-1-3-8 6-5 3h-3v2h-13l-8-2-4-4-7-14v-10l4-4 1-5 5-4 8-4 4-1h9l-2-9 1-4h-11l-5 1-6-3-1-4 3 2 7 1 13-2 1-1-13-2-4 1-6-5 3-2 4 3h15l6-7 2-1 11 1-1-4 5-4z" fill="#250344"/>
<path transform="translate(1046,159)" d="m0 0 6 2 7 7 3 4 21 2 16 7 8 6 9 13 5 15 1 17 2 2 11 4 8 6 5 5 5 8 3 9v12l-4 11-9 10-4 5h-2l1 10 2 7v11l-5 16-6 11-6 7-10 6-3 2h-7l-3 1 4 4 5 2h6l7-7 7-2 6 3 6 7 1 5-3 9-8 4h-6l-9-4-1-3-13-2-6-4-7-8-4-3-7-4-6-1-15-8v20l12 11 11 2 5 3 3 5v11l-8 6-2 1-10-1-4-4-3-6v-10l-4-6-5-3-7-8-1-3v-33l3-9-3-7v-8l2-5-7 1-6 5-2-1v-2l11-6 14 2-4-5 7-2 6-12-2-5-6-7-1-2v-20l7-8 2-2-1-6-6-10-4-1-2-1 1-2-6 1h-6l-3-3 1-2 4 2 7-1 4-2h5l5 4 10 19-2 5-6 7-1 2-1 14 3 5 1 1h5l5-3 8-2h14l13 4 8 6 2 4v1l9-1 7-5 8-13v-8l-3-11-4-8v-2l-4-2-11-5h-10l-10 6-7 7-5-1 2-6 8-8 10-6 1-2v-15l-4-13-7-11-9-7-9-4-7-2h-15l-10 5-6 4h-2v-2l-4 1 6-8 7-5-2-5-4-4v-2z" fill="#260345"/>
<path transform="translate(438,665)" d="m0 0h15l13 2 6 3 5 5v2l4 2 3 5 7 6 4 1 3 6v3l16 6 12 7 9 7 7 7 6 8 4 9 3 7-5-1-5-5h-13l-12 3-10 5-9 7-8 9-2 5-3 1v-2h-2v-2l-2-1-3-9-2-1-3-5-5-6-3-2v-2l-5-2-8-5-14-3-15-1-15 3-12 6-10 9-5 5-7 10-15 4-9 3-1-1 1-13h2l2-10h2l2-8h2l2-6 9-11 10-9 13-8 14-6 11-3h6l1 19 5 1 1-21 1-1 16-1 5-2 6-2-2-1-27-1-21 3-17 6-11 6-13 10-10 10-9 13-4 8h-2l-2 10-1 4h-2l-1 13-1 1-1 11-2-1-5-9-2-3v-8l4-16 5-12 1-4h2l2-5 6-10h2l2-5 10-10h2l1-3 8-6 17-9 15-5 19-4 11-1h27v-2l2-1-6-2h-10v-1h-20l-12 1 1-2z" fill="#03022A"/>
<path transform="translate(410,152)" d="m0 0h9l13 4 8 6 1 3 3 3 4 11v209l-4 10-7 8-8 5-10 2h-8l-10-3-8-6-7-8-4-10v-3h-17l-12-4-9-6-5-3-4-6v-2h-2l-2-4v-4h-2l-1-2-1-19-2-4-7-5-1-4h-2v-3l-3-1v-3h-2l-6-13-3-17 2-14 1-4h2l2-9 4-5 5-7 7-6 2-13 2-7 4-10 6-9 8-8h3v-2l8-4 7-2 17-1 7-16 4-5 11-7zm2 6-1 5 3 1v2l4 3h2v2l5 4 6 10 4 16v10l-3 12-6 10-5 6-1 6 2 6-5 1-1-5-20 4h-13l-14-4-6-4h-2l-1-3-5-5-7-10-3-7-1-6-4-2-4 9v18l1 5 2 1 1 3 9 7 3 3 4 1v5l-1 1-7-1-3-1-5-5-5-6h-2l-1-5-6 1-8 10-5 10-2 13v10l2 12 7 11 7 9 4 1 6-9 2-4 11-5 6-1-1 5-8 4v2h-2l-7 10-2 6v16l3 10h2l2 4 6 7h2v2l6 3h3v2l2 1 19 1 3-3 4-9 6-7h5l-8 13-2 5v9l3 9 8 9 12 5h10l9-4 5-5 5-6 3-11 1-9v-185l-4-13-6-8-5-4-6-3z" fill="#032A47"/>
<path transform="translate(1555,137)" d="m0 0h12l8 2 1 5h-24l-15 5-11 7-10 10v2l5 2 8 8 2 3v5l-5-1-8-8-11-5h-13l-13 4-10 6-5 6-3 6h-2l-3 10v21l11 6v2h2l7 9v5l-6-1-1-3-4-2-5-4-6-3h-9l-9 3-2 3-4 2-6 9-2 8 1 13 2 5v3l5-1 7-8 10-6 11-4h19l13 4 4 1 8-7 5-5 9-5 7-1h33l16 1 1 3h-9v2l-36 1-12 3-6 4-7 8-2 8-1 24v21l1 29 4 9 6 7 8 4 10 2 39 2v3l-10 2h-30l-13-2-9-5-7-7-4-7v-3h-2l-2-5h-5l-2 2 1 9-4 2h-11l-1 4-3 1v2l-6 2-8-1-6-4-1-4v-7l2-4v-5l-5-2-9-7-6-9-4-8-2-7v-16l3-10h-2l-5-9v-2h-2l-2-6v-16l4-11 6-9 3-4 12-6 7-1 1-19h2l1-7 7-14 9-10 9-6 13-5 19-1 7-8 9-8 16-8 7-2z" fill="#032B48"/>
<path transform="translate(494,691)" d="m0 0 12 3 12 5 12 7 8 6 5 4 7 8 9 12 8 16 4 11 4 21 3 18 5 21 4 11v12l-7 11-7 10-9 17-14 34-6 5-3 1h-9l-15-4-20-7 2-1 1-4-2-4 10 3 21 7 10 1 4-3 7-19 2-7-13-3-8-5v-4l4-1 8 3 8 2 5-1 11-17 8-11 2-6v-7l-3-6-3 1-2 6-7 6-15 5-4 1h-17l-10-4-11-7-8-7-8-11-3-7h-3l3-9 1-9h2v-10h-2l1-7h-2l1-4-2-1 6 1 2-6 11-12 9-6 13-5 6-1h13l7 6h2l-5-9-3-8-14-15-14-9-17-7-7-2 4-1z" fill="#260245"/>
<path transform="translate(386,1310)" d="m0 0h2v2l3 1v11l-2 4-1 14-1 2h-14l-5 6-7 14 1 6 7 7 1 2 1 13-5 6-5 5v6l6 11 4 6 6 1 6-2h8l9 5 3 6 2 10h11l-2-4-5-2-3-12-10-6-6-3h-6l-6 2-5-3-5-10 1-4 6-7 1-2v-19l-6-7-2-1v-6l4-6 4-3 7 1 7 4 1 4-2 3 1 3-2 3-1-5h-5l1 5 10 1 1 6v10l3 10 7 8 6 3v2h20l14 3-1 4-11 6-3 3-3 11h2l1-8 4-2 9-7 4-2h7l6 2h6l1 4-2 2-7-1-5-2-5 1-8 4v1l8-3 5-1 7 2h6l5-5 6-2h6l3-2h6l-1 5-6 10-11 13-14 10-4 3 12-7 6-4h3v2h-2l-1 3-7 4-2 4 6-1h4v2l-10 4-11 3-15 3v1h-7v1l-8 1h-12l-20-3v-1l20 1 1-3-10-2-15-5-15-8v-2l-5-2-8-8-9-11-8-15-5-18v-26l5-18 10-18 9-11 11-8 4-3h3v-2z" fill="#05022B"/>
<path transform="translate(1010,145)" d="m0 0h8l12 3 7 3 6 2v3h3v2h3l-1 2 1 4v3l5 4 1 4-10 8-2 4h2v2l13-8 5-2h15l12 4 8 5 6 5 8 13 3 11v15l-4 4-10 7-6 7-1 4 5-1 10-9 6-3h10l12 6 5 5 5 13 1 5v8l-6 10-4 5-6 4-9 1-2-5-5-4-9-4-7-2h-14l-11 3-2 2h-5l-4-4-1-5 1-12 9-12-2-6-8-15-4-3h-5l-8 3-2-2-1-11-3-6-4-13-7-13-12-13-17-12-5-3v-2l-3-1 2-4 13-4h7v-1l5-1-9-2z" fill="#03022A"/>
<path transform="translate(1682,1354)" d="m0 0 2 2v104h-120l2-6 3-5 4-13 2-9 1-18-1-13-2-2 3-1 1 2 5 1 1 2 5-1 4-5 3-2 3-1h12l8 6 10-1 11-7 2-3-1-14 5-10 5-2 4 1-2 2 4 1h7l7-3 8-4z" fill="#020229"/>
<path transform="translate(1527,247)" d="m0 0h63v1l16 3 5 5v3l-6-2-5-2-65 1-3 1 1 3-2 2 53 1 15 2 6 4 5 7 1 3v53l-3-3-1-6-1-40-3-8-5-4-4-1h-50v-1l27-1v-3h-46l-8 5-4 5-2 8-1 34 1 31 4 9 6 5 11 2 26 1-1-3 1-1-30-2-7-4-4-8v-67l4-6 4-3 10 1 4 4 12 16v2l2 1-8 6-3 5-1 4v21l1 2 4 1 1-15h9l7 1 1 14h5l1-2h2v-25l1-11h1l1 11 1-11 5-2 2 2-1 20v16 3h-5-1l8 1 1-18 1-2 14 2 3 1 1 2v27l-3 5-3 4 5 1 1 3 5-6 1-5 3 1 2-63-4-15-4-6-7-5-9-3v-1h11l10 6 5 8 2 6 1 43v29l-4 10-4 7-8 5h-2v2h3v4l-8 2-20 1h-17l4-2 5-1v-1l-38-2-10-2-9-5-7-8-3-8-1-29v-30l1-15 3-9 7-8 6-4 12-3h36v-2h9l-1-2-16-1-31-1z" fill="#03032B"/>
<path transform="translate(406,1325)" d="m0 0h13l10 1 2 1 1 5h2l1-3-1 8h2l7 7 1 2 4 2 8-1 2-1h6l2 1 4 7v5l-3-1 3 6-2 5-6 6-1 4v14l3 6 5 4 1 4-4 9-4 5-6-1h-10l-10 6-6 5-1 9-1-2h-2l2-11 7-6 8-4 1-3h-7l-9-2h-16l-2-1v-2l-6-2-7-7-3-7-1-5v-16l-5 1-6-2-1-5 1-1h5l2 2-1-3 2-4v-2l-4-1-6-3-5 1-3 1-2 5-2 7 4 2 5 6v19l-4 6-4 4 1 5 5 9 5 1 4-2h6l15 8 2 2 3 12 7 3-1 2 10 1v1h-19l-2-1-5-15-9-5h-8l-6 2-6-1-7-10-4-8v-6l4-5 5-5 1-3-1-11-7-8-2-3 1-7 8-14 4-3 7 1 4 2 7-1 9-5 4-13z" fill="#2A054B"/>
<path transform="translate(353,1320)" d="m0 0 4 1-9 11-8 13-6 15-3 13-1 6v13l3 17 6 16 10 17 7 7 1 3-5-1-24-14 5 4 6 4 3 3v2l-5-1-8-5h-2l13 8 23 11v1l-7-1-3-2-7 1-3 2-12 2-17-2-8-3-11-8-8-9-4-8-2-7-1-13 1-3h2l-1-7-2-5h-2v-3h-2v-3h-2v-4h-2v-10l2-4h2l2-4 5-6 3-5 5-4 9-11 4-2 2-3 7-1 1-2 7-3-2 5 4-3 18-11z" fill="#073455"/>
<path transform="translate(426,733)" d="m0 0 15 1 11 3 13 9v7l-2 1-2-1v-2l-4-2-5-2-1-2-16-2h-8l-12 3-13 7 2 4 5 5v2l13-4 13-1 11 3 6 2 1 5 4-1 3 10 1 2-1 2 2 1-1 4 1 8-4 14 2 4 6 7-2 1-2-1-3-5-4-1v5l2 1-4-1-1-2-5 2-10 3h-12l-11-4-4 1-7 6v3l10 6 9 3 5 1h8l14-3 10-5 3-5-2-1 3-1 2 1v5l-3 4v2l2 2-4 1-1 2-10 5-7 2h-22l-14-4-11-7-10-10-6-10-5-17v-15l4-16 7-12 9-10 10-7 7-3z" fill="#38A0FC"/>
<path transform="translate(1048,850)" d="m0 0h3l4 5 14 6 33 11 13 7 9 7v2l3 1 6 9 5 10 4 17 7 42 1 13-4 5-4 2h-131v-1l29-1 1-3-32-1v-1l85-1-2-16-3-37-1-49-8-3-30-10 2-4-2-4h-3v5h-1v-8l2-1v3h2z" fill="#DC01FA"/>
<path transform="translate(441,185)" d="m0 0 2 3v191l-2 13-6 8-7 5-6 2h-10l-12-5-8-9-3-9v-9l5-10 5-8-4-2 3-1-1-2-2-12-1-9-2-4 1-13 3-4 4-10 3-6 3-7 7-10 5-5 7-6 9-5 5-4z" fill="#250345"/>
<path transform="translate(1642,840)" d="m0 0 5 1 3 10 13 7 7 6 6 13v8l-5 11-3 4v5l2 1v2l3 1 3 7 1 12-2 12-4 10h-2l-1 5h-2v2h-3 4l11 3 6 7 1 3v9l-3 6-4 3-4 1h-8l-6-3-4-6-2-11-2 3-13 5-12 2h-8l-4-2h-8l-10 8-7 3-6 1h-30l-6-1 2-2 32-1 9-2v-3l-4 1h-28v-1l25-1 9-3 9-7 18-18 9-11 6-10 4-12 1-8 1-69z" fill="#260345"/>
<path transform="translate(1024,1245)" d="m0 0 7 2 6 3v2h2v3h2l2 4 2 1v2h7l1 4-5-1v2l6 1 6 5 5 9v8h-2l-2 5-5 5v2l-2 1 7-1 5-5h5l5 8 1 3v8l-3 8-3 5-3 1-7-6-2 1 6 12v7l-3 6-5 5-5 3h-10l-4-5-3-4h-2l4 11-1 8-2 1-1 3-5 2-8-2-5-4-2-7v-101h-3v-4l-2-2 3-1 3-4z" fill="#07022D"/>
<path transform="translate(403,1304)" d="m0 0h25l11 1 5 2 5 1 21 11 7 6 13 18 6 13 4 12 1 6v24l-3 12-5 13-6 10-9 11-6 7-17 10v-3l14-9 7-6 11-15 3-5v-3h-5l-3 2h-8l-4 1-2 4-3 2-10-1-7-1-5 3-5 1 1-3 10-5 5 1 6 2 5-1v-3l-10-1-2-2 9 1 5-7 2-8-5-5-3-4-1-3v-14l2-5 7-8-2-6-1-4 3 2-1-6-2-2v-3h-8l-6 2-5-1-5-3-5-5-1-3h-2v-5h-2l-1-5-25-2-3 11-3 6-12 6-6-1-4-2-6-1v-1h9l6 1 1-17 2-3v-11l-2-1v-3z" fill="#270347"/>
<path transform="translate(486,812)" d="m0 0 2 4 7 11 6 7 10 7 9 5 6 2h17l16-5 7-4 3-3 2-5h2l1-2 4 7v7l-4 9-10 14-7 11-2 2-8-1-10-3-6-1 2 5 9 4 10 2 1 2-7 20-3 6-4 3-10-1-21-7-11-4-5-1v-2l-7-3h-6v-2l-3 1 2-8 4-19 1-7v-13l-3-19-1-4-2-2 2-5h2l1-5z" fill="#020229"/>
<path transform="translate(913,874)" d="m0 0h6l4 4v47l-2 20-1 15v7l-1 3v13l-2 3h-46l-7-2-1-2v-11l2-9 1-11 1-2 2-18 4-15 2-10h2l2-8h2l2-5 9-11 7-4 4-1h9z" fill="#09395E"/>
<path transform="translate(992,1253)" d="m0 0 7 1 5 4 3 7v98l-3 8-6 4-6 1-5-3-4-5-1-8 4-10-5 4-2 3h-2l-1 3h-7l-8-4-5-8-1-10 4-6 5-5 1-3-6 1-8 6-4-2-4-10v-11l3-7 4-3 10 6 5 1-1-4-8-7-1-3v-9l3-6 6-5 5-2h6l8 8 4 1-5-10v-6l4-6z" fill="#04062E"/>
<path transform="translate(1506,1358)" d="m0 0h7l5 3 3 6 9 5 9-1 5 4 5 8v6l-4 6v9l6 7-1 8-5 10-1 1-11 1-6 4h-2l-1 8-3 3-6 1h-11l-5-5-3-5-7-3-9 1-6-5-5-8-1-6 4-5 1-6-2-6-5-7 3-9 5-8 6-1h6l7-5 3-8 3-2z" fill="#032A47"/>
<path transform="translate(1642,838)" d="m0 0 5 1 3 5 2 6 8 5-2 1-9-5-3-10h-4l-1 69-2 11-5 13-8 11-3 4h-2l-2 4-20 20-8 5-7 2h-23l-14-2-2-2h42l8-2 2-5-9-6-9-14-4-2-5 1-10-1v-3h-3l-1-6 5-2 14-1v-17l6-14 8-11 5-5h2l-1-2-9-2-6-3-1-6 2-2 9 1 5 1h13l10-2 3 3v2l2-1 11 1 5 1v-37l1-3z" fill="#260345"/>
<path transform="translate(1525,264)" d="m0 0h38l8 1v3l-6 1h29l7 3 4 5 2 6 1 40 2 7v-37l1-12h1v70l-2 4-6 7-1-4h-7l2-1 2-4 3-5v-29l-14-2-3-1-1 17-1 3h-8l-1-1v-5l2 4 4-2v-19l1-17-3-1-2 1-1 12-3-1-1 25h-2l-1 3h-5l-1-1v-14h-14l-2-1v13l-1 2-5-1-1-2v-21l3-8 8-7-4-7-10-13v-2l-12-1-5 4-2 4v67l4 8 6 3 32 2-2 3v2h-26l-11-2-8-7-3-8-1-33 1-32 2-8 7-8z" fill="#2E034D"/>
<path transform="translate(410,152)" d="m0 0h9l13 4 8 6 1 3 3 3 4 11v209l-4 10-7 8-8 5-10 2h-8l-10-3-8-6-7-8-4-10v-3h-17l-12-4-9-6-5-3-4-6v-2h-2l-2-4v-4h-2l-1-2-1-19-2-4-7-5-1-4h-2v-3l-3-1v-3h-2l-6-13-3-17 2-14 1-4h2l2-9 4-5 5-7 7-6 2-13 2-7 4-10 6-9 8-8h3v-2l8-4 7-2 17-1 7-16 4-5 11-7zm2 6-8 3-8 6-5 8-2 9 1 8 8 13 1 3-6-2-7-8-4-8-8-1-11 1-14 7-9 9-5 12-1 4v11l3 9 2 1 1 3 9 7 3 3 4 1v5l-1 1-7-1-3-1-5-5-5-6h-2l-1-5-6 1-8 10-5 10-2 13v10l2 12 7 11 7 9 4 1 6-9 2-4 11-5 6-1-1 5-8 4v2h-2l-7 10-2 6v16l3 10h2l2 4 6 7h2v2l6 3h3v2l2 1 19 1 3-3 4-9 6-7h5l-8 13-2 5v9l3 9 8 9 12 5h10l9-4 5-5 5-6 3-11 1-9v-185l-4-13-6-8-5-4-6-3z" fill="#0E446F"/>
<path transform="translate(927,1478)" d="m0 0h21l31 1 4 9 7 2 43-1 4-1v-2h2l1-7 2-1h50l56 1v7l-5 5-8 6-3 1-11 1h-162l-18-1-52-1-9-3-6-4-1-5h-2v-5l39-1z" fill="#260345"/>
<path transform="translate(1613,1289)" d="m0 0h7l11 6 5 4 1 4-2 8 6 10 5 4 9 4 2 5v17l-4 4-8 2-2 6-3 5v17l-8 6-8 5h-6l-8-6h-12l-5 1 4-4h15l1-2h-19l-1-2h20l6 4v2l6-1 6-7-1-5-2-2v-5l3-3 2-4-1-5-7 2-1-3-8 6-5 3h-3v2h-13l-8-2-4-4-7-14v-10l4-4 1-5 5-4 8-4 4-1h9l-2-9 1-4h-11l-5 1-6-3-1-4 3 2 7 1 13-2 1-1-5-1 4-2 4-4z" fill="#250244"/>
<path transform="translate(1008,145)" d="m0 0 14 2-4 4h-11l-10 2-11 4-11 7-10 9 2 4 8 6 1 4h2l1 2v6l-6-2-8-8-9-4h-17l-11 4-6 4-9 9-6 12-2 8v12l1 4 10 5 7 6 4 7-1 4-5-1-7-7-8-5-8-1-9 2-10 7-4 5-2 8v14l3 8 6 7 8 5 8 3 26 1 4 2-1 5h-30l-9-2-9-4-8-7-5-8v-4h-2l-1-4v-18h2v-6l3-1v-5l8-7 2-5 2-19 5-16 8-14 10-11 5-5 11-8 14-6 17-4h25l12-6 13-3z" fill="#063253"/>
<path transform="translate(1433,1292)" d="m0 0h54l53 1 7 2-1 4-2 1h-104l1 3v52l-1 106 113 1 16 1v1h-7v3l-23 2v2l3 1 21 1v1h-10v2h9l3 1 1-2 5 2v1l-21 1h-12l-5-4-1-6h-107v5h2l6 8v2l11 3 101 1 16 2 1 2-19 2-36 1h-63l-12-3-8-6-2-4h-2l-4-10v-11h16v-168z" fill="#052F4E"/>
<path transform="translate(1527,247)" d="m0 0h63v1l16 3 5 5v3l-6-2-5-2-65 1-3 1 1 3-2 2 53 1 15 2 6 4 5 7 1 3v53l-3-3-1-6-1-40-3-8-5-4-4-1h-50v-1l27-1v-3h-46l-8 5-4 5-2 8-1 34 1 31 4 9 6 5 11 2 26 1-1-3 1-1-30-2v-1h38l14 1 3 1 11-1 2-1h7l1 3 5-6 1-5 3 1 2-63-4-15-4-6-7-5-9-3v-1h11l10 6 5 8 2 6 1 43v29l-4 10-4 7-8 5h-2v2h3v4l-8 2-20 1h-17l4-2 5-1v-1l-38-2-10-2-9-5-7-8-3-8-1-29v-30l1-15 3-9 7-8 6-4 12-3h36v-2h9l-1-2-16-1-31-1z" fill="#02032A"/>
<path transform="translate(476,1317)" d="m0 0 6 1 13 8 15 9 13 10 10 9 8 7v2l3 1 13 18 1 5-3 6-13 15-8 9-8 7-15 12-17 11-12 6-4-1 5-6h2l2-4 7-10 8-16 4-17v-26l-6-22-10-18-8-8-3-1-3-4z" fill="#270346"/>
<path transform="translate(882,1301)" d="m0 0h27l11 1 1 5-3 2h-32l1 161 66 1 60 2-4 4 2 1-27 1 2 3 24 2 2 4h-28l-4-3-1-5-44-1-25 1h-39v5h2l1 5 4 2 7 3 4 1 52 1 58 2 8 1v3l-3 1-30 1h-88l-7-2-3-1v-2l-4-1-5-6-4-9-1-11 4-2h13l-1-151 1-18z" fill="#042E4E"/>
<path transform="translate(943,707)" d="m0 0 1 3-3 8-3 17-8 5-8 7-4 7-1 4v8l6 12 7 6 8 5 7 20 2 4-18-1-10-3-14-9-8-8-6-10-4-13v-15l4-13 7-10 3-4h2v-2l14-9 10-4 14-2z" fill="#032B48"/>
<path transform="translate(997,667)" d="m0 0 17 2-2 4-12 2v22l1 9 5 4v6l-6-1-4-3-3-5-1-3v-27l-11 3-2 3-1 17-4 2-3-3-1-6v-5l-5 3-8 11-7 14-2 8-1 10v41l2 21 5 12 9 12 14 14 4 5 10 5 16 1-3 1-1 4h11v1l-22 1-9-3-5-2v-2l-4-2-16-15-7-8-8-13-6-18-10-6-7-8-4-9v-8l4-10 8-8 9-5 4-21 6-13 6-9 8-9 14-9 11-5z" fill="#38A0FC"/>
<path transform="translate(438,665)" d="m0 0h15l13 2 6 3 5 5v2l4 2 3 5 7 6 4 1 3 6v2h-13l-5 1v-2l-44 1v17h-1v-18l1-1 16-1 5-2 6-2-2-1-27-1-21 3-17 6-11 6-13 10-10 10-9 13-4 8h-2l-2 10-1 4h-2l-1 13-1 1-1 11-2-1-5-9-2-3v-8l4-16 5-12 1-4h2l2-5 6-10h2l2-5 10-10h2l1-3 8-6 17-9 15-5 19-4 11-1h27v-2l2-1-6-2h-10v-1h-20l-12 1 1-2z" fill="#03042C"/>
<path transform="translate(1058,704)" d="m0 0 3 3 5 13 2 12v53l-5 18-7 11-9 11h-2l-2 4-8 7 5-4 4-3 7-4 6-4h2l-2 4-20 20-9 5-4 2-5 1h-24l2-2 6-1 1-4-13-1-8-4-1-3 5-1 4-7 6-9 1-4h-2l-1-7h2v-2l4-1 11-1 4-2v-2l17-8 18-6 12-2 2-3v-54l-3-14-4-9z" fill="#260346"/>
<path transform="translate(1046,237)" d="m0 0 5 1 6-1 3 3 6 12-1 4-7 7-1 2v20l9 12-3 9-5 7-5 1 3 2v2l-5 1-4-2-7 1-8 5-1 4-3 5-2 8-4 3-23 1-5-3-2-3-2-11-5-5 5 2 2 2 3 12 1 2 9 1h2l1-3-9-3-4-16-2-5 10-4 3 1v4h8l-1-6-6-2 1-2 3-1 1-2h2v-2h5l5-3h2v-2l5-5h2l-1-3 1-2h2l-1-5 2-3v-9l3-5 2-4h5l-1-2-4-2 2-5v-8l-4-4z" fill="#05022B"/>
<path transform="translate(951,711)" d="m0 0 13 7 10 9 8 10 6 11 1 8h6l2 1-1 6-8 3-1 11-7 12-9 11-8 6-5 3v3l-3-1-6-12-2-9-1-15v-41l2-15z" fill="#032A47"/>
<path transform="translate(1522,692)" d="m0 0h16l17 1v5l-1 1-35 1-13 2-9 5-6 5-5 7-4 10-1 5v14l3 10 7 9 8 7 12 5 13 1v-12l-10-1-10-4-5-4-6-10-1-3v-12l4-10 6-7 8-4 4-1h46l2 6-5 1-39 1-9 3-5 5-3 6-1 7 2 7 7 8 7 3h7l2-16 4-6 5-4 7-2 11 1 3 3-1 1-10 1-9 4-2 4-1 13v33l1 11 2 5 7 3 10 2 1 5-13 1-8-3-6-7-2-6-1-14h-8l-10-2-9-4-9-6-7-8-6-12-2-8v-18l4-10 6-10 8-8 11-6 8-3z" fill="#38A0FC"/>
<path transform="translate(1578,1298)" d="m0 0 5 2 2 4 5 2 5-1h12l-1 6 1 8-13 2-11 6-2 4-1 3-3 3v10l5 10 1 4 4 2v2l8 1 13 1v-2l7-3 7-6h2l1 2 7-2 2 3-1 4-3 5-1 1v5l3 4-1 4-6 7-4 1-8-6h-20l-5 5-2 3-6-1-4-3v-2l-4-1-1-5 2-5v-2l-2-1-1-5h-2l-6-11-10-4-1-1v-12l2-2h4l1-3h3l3-9 3-1 2-7v-6l-2-3 1-4 5-4z" fill="#03022A"/>
<path transform="translate(494,691)" d="m0 0 12 3 12 5 12 7 8 6 5 4 7 8 9 12 8 16 4 11 4 21 3 18 5 21 4 11v12l-7 11-7 10-9 17-14 34-6 5-3 1h-9l-15-4-20-7 2-1 1-4-2-4 10 3 21 7 10 1 4-3 7-19 2-7-13-3-8-5v-4l4-1 8 3 8 2 5-1 11-17 10-14 2-4-1-7-5-13-4-15-7-38-6-18-7-13-6-8-9-10-11-8-16-8-13-4 4-1z" fill="#DB01F9"/>
<path transform="translate(1582,692)" d="m0 0h29l16 2 13 5 9 7 7 8 5 10 2 7v18l-3 10-6 10-9 9-8 5-10 4-14 2-1 1v12l-3 8-8 6-3 1v-5l-4-2 6-3 3-6v-53l-3-7-6-3h-23v-1h21l-1-3-2-1-23-1v-1l22-1 11 1 6 3 6 9 1 3 1 11 1 2h7l9-6h2l2-4 2-10-2-8-6-8-8-3-34-1-2-5-3-3 33 1 9 1 10 4 8 9 3 9v11l-3 8-4 5-9 6-6 2-8 1-3 1 1 6-1 4 10 1 11-4 10-6 9-10 4-11v-17l-5-13-10-11-9-5-16-3h-34l2-4z" fill="#DC01FA"/>
<path transform="translate(1653,1292)" d="m0 0h30l8 1 1 1 1 9v157l3 1 11 1 1 1v9l-3 8-7 8-8 5-14 2-109-1v-1l30-1 10-1-4-1-31-1v-1l111-1 10-5 6-6 1-6-4-1-89-1h-13v-1l9-1h10v-2l-38-1v-1h82l29-1-1-132-1-29-30-1-3-2v-4z" fill="#DC01FA"/>
<path transform="translate(1101,1302)" d="m0 0h29l10 1 1 17v150l1 1 13 2 1 1v10l-5 10-7 6-9 4-5 1h-37l-36-1v-1l8-1-1-1-41-1v-1l98-1 11-1 8-4 6-5 2-9h-110l3-2 19-1v-2h-12l-20-1v-1l104-1 1-47v-115l-32-1-2-1v-4z" fill="#DC01FA"/>
<path transform="translate(415,1297)" d="m0 0 18 3 1 3-23 1-12 2-16 6-4 1v2l-9 5-7 6h-2l-2 4-6 7-10 18-5 18v26l5 18 8 15 12 14 7 6 2 1v2l6 2 14 7 10 3 18 2v1l-8 1-1 2h9v1h-14l-15-2-22-6-13-5-20-10-10-7 3-1 9 6 4 1-5-6-10-6-2-3 5 2 22 13 4 1-7-8-10-16-6-15-3-13-1-7v-13l3-16 6-16 8-14 9-10 1-2-4 1-20 11-11 8-4 2 3-6-7 4-3-1 14-11 16-10 24-12 5-2 21-5 17-2z" fill="#38A0FC"/>
<path transform="translate(376,1353)" d="m0 0 7 1 7 4 1 4-2 3 1 3-2 3-1-5h-5l1 5 10 1 1 6v10l3 10 7 8 6 3v2h20l14 3-1 4-11 6-3 3-3 11h2l1-8 4-2 9-7 4-2h7l6 2h6l1 4-2 2-7-1-5-2-5 1-8 4-3 6-2 10-2 2-12 2-15-1-2-2-4-14-9-5h-11l4-2h8l9 5 3 6 2 10h11l-2-4-5-2-3-12-10-6-6-3h-6l-6 2-5-3-5-10 1-4 6-7 1-2v-19l-6-7-2-1v-6l4-6z" fill="#04042D"/>
<path transform="translate(462,1305)" d="m0 0 6 1 20 8 14 8 19 13 14 12 4 3v2l4 2v2l4 2 7 8 9 13 1 2v10l-4 6-11 14-6 7-8 7-13 11-22 15-16 8-10 4-1-2-7 2-2-1 2-5 7-4 1-2h2v-2l-3-1 7-7 7-9 6-11 6-17 1-6v-24l-3-12-5-13-7-12-8-10 2-4 5 3 7 7 10 18 6 22v26l-4 17-8 16-7 10-5 5-4 5 5-1 12-6 16-11 16-13 11-10 9-11 7-8 2-5-1-5-10-14-11-12-22-18-9-6-11-6-11-7-6-2-1 2-6-2-1-3-6-3 1-2 5 1v-2h-3v-2z" fill="#DA01F8"/>
<path transform="translate(1555,137)" d="m0 0h12l8 2 1 5h-24l-15 5-11 7-10 10v2l5 2 8 8 2 3v5l-5-1-8-8-11-5h-13l-13 4-10 6-5 6-3 6h-2l-3 10v21l11 6v2h2l7 9v5l-6-1-1-3-4-2-5-4-6-3h-9l-9 3-2 3-4 2-6 9-2 8 1 13 2 5v3h2l6 7 8 4 11 2 24 1 2 1-1 5-3 1h-23l-12-2-9-4-5-4-3-1-5-9v-2h-2l-2-6v-16l4-11 6-9 3-4 12-6 7-1 1-19h2l1-7 7-14 9-10 9-6 13-5 19-1 7-8 9-8 16-8 7-2z" fill="#0C4069"/>
<path transform="translate(1607,1467)" d="m0 0 89 1 5 2-1 6-8 8-9 4h-113l-22-1-9-2v-3-2l44-1 6-2 3-5v-4z" fill="#030229"/>
<path transform="translate(1425,1468)" d="m0 0h105l2 1 3 7 5 5-1 3 9 2 22 1 2 1 31 1 5 1-1 2-16 1h-24v2h-58v-1l34-1 18-2-16-2-101-1-9-3-5-5-3-4v-2h-2l-1-5z" fill="#032A47"/>
<path transform="translate(1490,839)" d="m0 0 5 1 1 71 3 14 7 14 10 11 7 8 17 17 13 6-4 2-1 2-6-1-9-5-8-8-8-7-12-13-11-16-8-24-12-6-8-9-4-9v-12l4-9 6-8 14-8 2-9z" fill="#38A0FC"/>
<path transform="translate(1642,840)" d="m0 0 5 1 3 10 13 7 6 7 4 8 1 4v8l-4 10-9 10-10 5h-2l-4 16-8 16-6 8-9 10-18 18-7 5-5 2-4-1 3-2v-2l-4 1h-28v-1l25-1 9-3 9-7 18-18 9-11 6-10 4-12 1-8 1-69z" fill="#DC01FA"/>
<path transform="translate(410,152)" d="m0 0h9l13 4 8 6 1 3 3 3 4 11v209l-4 10-7 8-8 5-10 2h-8l-10-3-8-6-7-8-4-10v-3h-17l-12-4-3-3 16 4h3v-2l-4-2 18-1 3-10 8-9 5 1-2 5-6 10-1 3v9l3 9 7 8 12 5h10l9-4 4-2 2-4 4-7 3-16v-186l-4-13-6-8-8-5-8-2-10 1-7 4-5 5-4 6-2 9 1 8 8 13v3h-5l-7-7-5-10-8-1-11 1-14 7-5 4 2-4 10-7 5-1v-3l-8 1 4-3 7-2 17-1 7-16 4-5 11-7z" fill="#38A0FC"/>
<path transform="translate(927,1478)" d="m0 0h21l31 1 4 9 1 3 27 1 2 1v2l-2 1-11 1-59 1-52-1-9-3-6-4-1-5h-2v-5l39-1z" fill="#03022A"/>
<path transform="translate(1044,680)" d="m0 0 5 1 8 7 8 11 6 12 4 17 2 8 10 6 6 7 3 6 1 10-3 9-4 6-7 5-7 3-7 21-7 10-3 3-4 1-8 6-6 3-6 6-2-1 8-8 6-5 8-10 7-11 5-18v-53l-2-12-5-13-7-11-11-11z" fill="#DB01F9"/>
<path transform="translate(1608,252)" d="m0 0 5 2 6 5 6 10 3 10v72l-3 10-7 10-9 6-4 1v-4h-3v-2l8-5h2l1-4 5-10 1-3v-29l-1-43-4-9-2-4-10-6h-10l9 3 7 5 4 6 4 15-2 59-2 4-1-70-4-8-4-5-8-3-11-1-56-1 4-4v-2l-2-1 5-1 65-1 7 3 3 1-1-4z" fill="#2E024D"/>
<path transform="translate(1506,1358)" d="m0 0h7l5 3 3 6 9 5 9-1 5 4 5 8v6l-4 6v9l6 7-1 8-5 10-1 1-11 1-6 4h-2l-1 8-3 3-6 1h-11l-5-5-3-5-7-3-9 1-6-5-5-8-1-6 4-5 1-6-2-6-5-7 3-9 5-8 6-1h6l7-5 3-8 3-2zm-2 7-6 9-9 7-2 1-9 1-3 3v5l3 4 2 13-1 7-2 2v6l3 3h9l13 6 5 8h8l5-8 10-7 6-1 5-1 3-4v-6l-3-3-1-4v-15l3-6-5-7-7 1-14-5-5-6-2-3z" fill="#38A0FC"/>
<path transform="translate(990,1248)" d="m0 0h8l8 4 5 5-1 3h3l-2 15h-1l-1-8v77l2 2 1 9 1 10 4 6 1 2h-3l-1 2-4-2-7 6-7 2-9-1-8-7-4-6-12-3-6-4-7-8-4-15-6-8-3-7v-16l6-12 4-3 3-13 6-9 8-5 3-1h9l2-6 5-6zm2 5-6 3-4 6 1 9 4 7-5-2-7-7-9 1-6 4-4 5-1 3v9l3 5 7 6v3l-7-2-9-5-5 6-1 4v11l4 10 4 2 8-6 6-1-3 6-5 4-2 4 1 10 5 8 8 4h7l1-3 3-1 4-5 2-1-4 10 1 8 6 7 6 1 8-4 3-5 1-4v-98l-3-7-5-4z" fill="#379FFB"/>
<path transform="translate(1046,159)" d="m0 0 6 2 7 7 3 4 21 2 16 7 8 6 9 13 5 15 1 17 2 2 11 4 8 6 5 5 5 8 3 9v12l-4 11-9 10-8 6-5 2-11 2h-14l-12-1-1-4 1-1 21-1 14-2 11-7 6-7 3-7v-12l-3-9-4-6-1-3-4-2-11-5h-10l-10 6-7 7-5-1 2-6 8-8 10-6 1-2v-15l-4-13-7-11-9-7-9-4-7-2h-15l-10 5-6 4h-2v-2l-4 1 6-8 7-5-2-5-4-4v-2z" fill="#DB01F9"/>
<path transform="translate(388,883)" d="m0 0h5l2 2 1 16 23 23 4 5 4 4v4l-4 1-7-4-17-17-4-2 1 11 7 8 9 9 7 8 8 8h13l6 4 3 5v7l-3 8-6 4h-9l-6-3-4-6v-13l-21-21-8-7-5-7-1-3v-29l1-14z" fill="#38A0FC"/>
<path transform="translate(424,767)" d="m0 0h14l8 4 5 4 4 8 1 7-1 9-1 2h-2l-2 4-5 5-4 3-6 2-10-1-9-6-6-7-2-6v-9l3-8 5-6z" fill="#032A47"/>
<path transform="translate(386,1310)" d="m0 0h2v2l3 1v11l-2 4-1 14-1 2h-14l-5 6-7 14 1 6 7 7-1 13-2 2-6-4-4-4-8-6-7-3-1-2 1-15 8-16 7-10 5-6 11-8 4-3h3v-2z" fill="#03032B"/>
<path transform="translate(1610,160)" d="m0 0 4 3 19 2 14 5 12 9 8 11 4 9 2 10v15l15 6 9 7 6 8 4 9 1 5v8l-2 9-6 10-10 9-11 4-15 2-19-1-2-4 4-2h13l21-3 11-8 6-8 2-6v-9l-3-10-4-6-5-5-10-5-8-1-8 3-4 3h-2l-2 4h-2l-2 4h-5l1-6 7-8 13-8v-16l-5-15-7-10-9-7-14-5h-17l-9 5-2-1 1-3-6 1 9-9 2 1h2z" fill="#DC01FA"/>
<path transform="translate(1150,1494)" d="m0 0v3l-10 7-17 5h-2l-2 4-17 8-13 4-5 1h-19l-24-8-13-7-3-3-95-1v-1l79-1 13-1h108l10-3 9-6z" fill="#260245"/>
<path transform="translate(281,1403)" d="m0 0 26 26 17 13 16 10 23 11v1l-7-1-3-2-7 1-3 2-12 2-17-2-8-3-11-8-8-9-4-8-2-7-1-13 1-3h2l-1-7z" fill="#032A47"/>
<path transform="translate(543,1367)" d="m0 0 8 6 7 11-1 5-3 5-12 14-8 9-8 7-15 12-17 11-12 6-4-1 5-6h2l2-4 5-4 9-16 6-13 12-6 4-3h2v-2h3l2-4 5-4h2l1-4 3-6v-12z" fill="#020229"/>
<path transform="translate(1527,247)" d="m0 0h63v1l16 3 5 5v3l-6-2-5-2-65 1-3 1 1 3-2 2 53 1 15 2 6 4 5 7 1 3v53l-3-3-1-6-1-40-3-8-5-4-4-1h-50v-1l27-1v-3h-46l-8 5-4 5-2 8-1 34 1 31 1 6-2-2-2-6-2-18-1-16-1 25-1 10h-1l-1-24v-30l1-15 3-9 7-8 6-4 12-3h36v-2h9l-1-2-16-1-31-1z" fill="#022A47"/>
<path transform="translate(1584,700)" d="m0 0h25l16 2 12 3 10 9 6 9 3 9v17l-5 12-9 10-10 6-11 4-8-1-2-1v-10l3-2 11-2 8-4 5-5 4-6 1-4v-11l-4-13-6-6-13-4-10-1-25-1-2-4v-5z" fill="#07071D"/>
<path transform="translate(1525,248)" d="m0 0h33l16 1 1 3h-9v2l-36 1-12 3-6 4-7 8-2 8-1 24v21l1 29 4 9 6 7 8 4 10 2 39 2v3l-10 2h-30l-13-2-9-5-7-7-5-10-2-11v-61l2-13 6-11 5-5 5-4 6-3z" fill="#379FFB"/>
<path transform="translate(353,1320)" d="m0 0 4 1-9 11-8 13-3 3-4 9-3 11-2 5-23 6-4 3h-2v2l-4 1-4 4-4 7-5-5-1-2v-6l5-9 5-5h2l1-4 15-15h2l1-3 3-1 5-5 9-7 21-12z" fill="#02042A"/>
<path transform="translate(996,209)" d="m0 0h15l-2 4-9 3-3 13-10 7-8 5-10-1-6-1h-2l-2 5-4 7 1 5 6 5 2 4v21l-7 8-2 2 1 6 6 10 10-1 2-1 8 2 12 7 3 5 3 11 10 2-5 5-9-1-3-5-2-10-8-5-5-2h-8l-6 2-6-1-7-10-6-11 1-6 9-8 1-3v-13l-3-5-6-5-2-3v-5l6-11 7-9 1-1 9 1 9 3 1-2 10-4 1-2h2l2-11 1-3h2z" fill="#38A0FC"/>
<path transform="translate(340,1361)" d="m0 0h1v12l1 2 7 3 11 8 4 4h3l1-9 2-2 1 13-5 6-5 5v6l6 11 4 6 2 2-3 10-3 5-1 6-7-6-9-11-8-15-5-18v-26z" fill="#032A47"/>
<path transform="translate(1097,881)" d="m0 0h6l6 3 2 3 1 33 5 1 1-1 1-24 4 1 5 8 4 13 4 17v6l-1 1h-12l-12-1-8-4-4-5-2-7z" fill="#250244"/>
<path transform="translate(406,1325)" d="m0 0h13l10 1 2 1 2 7h-4l-2-4h-14l-3 2-4 13-15 9h-7l-9-1-6 9-1 6 4 2 5 6v19l-4 6-4 4 1 5 5 9 5 1 4-2h6l15 8 2 2 3 12 7 3-1 2 10 1v1h-19l-2-1-5-15-9-5h-8l-6 2-6-1-7-10-4-8v-6l4-5 5-5 1-3-1-11-7-8-2-3 1-7 8-14 4-3 7 1 4 2 7-1 9-5 4-13z" fill="#38A0FC"/>
<path transform="translate(962,850)" d="m0 0 5 1 1 10-3 3-40 13v32l-1 26-4 44h37l38 1 4 2-4 1v2h9v1l-15 1h-119l-2-2h49l1-4v-11l1-3v-14l2-19 1-17v-39l-3-3h-6l-1 2-11 1 3-3 14-6 36-12 5-2z" fill="#38A0FC"/>
<path transform="translate(999,666)" d="m0 0h17l6 2 7 2 6 1 3 3 5 1 1 3 3 2-4 4 2 5h-2l1 4-1 9-4 2-3-1-3-6v-9l1-7-3-1v-2l-3 1-4-2-1 1-1 29-4 6-5 4-10 1-6-3-1-2 9 2v-5l-5-4-1-10 1-21 4-2 7-1 2-2-15-2z" fill="#052A49"/>
<path transform="translate(349,771)" d="m0 0h1v18l2 18 5 16 7 13 8 10 4 4v2l4 2 13 10 18 8 13 5 3 1 1-18 1-2 5 1 1 1 1 21 13 5 8 3v2l4-1 2 4-5 2-1 3-7-3-36-12-26-11-11-8-12-11-9-12-2-5 7 6 5 3-1-4-5-7-8-17-4-18v-25z" fill="#38A0FC"/>
<path transform="translate(913,880)" d="m0 0h3v46l-3 8-4 4-9 2h-20l-1-5 3-16 4-13 7-10h1v21l2 5 4 1v-2l4-1v-35z" fill="#020329"/>
<path transform="translate(1100,946)" d="m0 0 10 2 22 1 6 2 3 17v9l-2 2-4 1-32-1-2-7-1-12z" fill="#020228"/>
<path transform="translate(1431,1293)" d="m0 0h1v168h-11v-1h10l-2-5-2 1-4-2-6-18-1-8v-29l6-16 3-7 6-2z" fill="#032B48"/>
<path transform="translate(580,273)" d="m0 0h6l5 3 3 4 1 9-5 6-2 1-1 16v22l-3 7-26 26-3 1h-22l-11-1-2-3 4-2 28-1 6-4 20-20 2-10-1-30-5-5-3-5 1-7 4-5z" fill="#DC01FA"/>
<path transform="translate(1525,264)" d="m0 0h38l8 1v3l-6 1-36 2-7 3-4 6v67l4 8 6 3 32 2-2 3v2h-26l-11-2-8-7-3-8-1-33 1-32 2-8 7-8z" fill="#38A0FC"/>
<path transform="translate(1613,1289)" d="m0 0h7l11 6 5 4 1 4-2 8 6 10 5 4 9 4 2 5v17l-4 4-8 2-2 6-3 5v17l-8 6-8 5h-6l-8-6h-12l-5 1 4-4h15l1-2h-19l-1-2h20l6 4v2l6-1 7-6-1-12 8-16 6-4 5-2v-13l-9-4-7-8-6-9v-6l1-6-10-6-4 1-5 6h-11v-1l7-1 1-1-5-1 4-2 4-4z" fill="#DB01F9"/>
<path transform="translate(434,689)" d="m0 0 28 1 1 4-10 2-1 1-16 1-1 19-1 2h-5l-1-1v-19l-17 4-16 7-12 8-10 9-8 10-1-4 4-8-4 1-1 3-5 5-4 5-5 10-1-3 7-13 9-11 10-10 14-10 13-6 12-4z" fill="#38A0FC"/>
<path transform="translate(1586,719)" d="m0 0h34l8 3 6 7 2 4 1 9-2 7-5 5-9 6h-7l-2-3-1-11-5-10-5-3-2-1-11-1-1-3 13 1-4-4-2-4-8-1z" fill="#08032E"/>
<path transform="translate(938,326)" d="m0 0 4 2 1 4v30l-4 6-19 19-5 2v2l-11 1-3 2-1 3-7 3-7-1v-2l-4-2-4-4v-9h2l2-5 5-3h7l4 1v2h3v2h2l1 2 9 1 8-7 13-13 1-3 1-31z" fill="#0B3E66"/>
<path transform="translate(398,362)" d="m0 0 5 1 7 12 7 9v2l3 1 3 3v2l6 3v6l2-1 3-3 2 1-5 5-9 4h-10l-12-5-8-9-3-9v-9l5-10z" fill="#02042B"/>
<path transform="translate(1653,1419)" d="m0 0 6 1 1 6-7 8-5 5-3 1-23 1-5 5-3 2h-10l-6-5v-3l-3-1-1-5 3-8 6-5 8-1 8 4 4 5h19l6-4z" fill="#240445"/>
<path transform="translate(907,947)" d="m0 0h6v9l-2 21-1 1h-35l-1-2v-9l2-14 1-2h22v-2z" fill="#020229"/>
<path transform="translate(1100,1300)" d="m0 0h32l9 1 2 13 1 73v32h2l6 13 2 11v9l-5 10-5 4-1 4 11 1 3 2 1 8-4 11-3 2 4-10v-10l-13-2-2-2v-167h-41v4l29 1 3 2h-31l-4-2v-5z" fill="#260345"/>
<path transform="translate(1439,1310)" d="m0 0h1v151l113 1 16 1v1h-7v3l-23 2v2l3 1 21 1v1h-10v2h9l3 1 1-2 5 2v1l-21 1h-12l-5-4-1-6h-107l-2 2 1-4 39-1 7-1-29-2-3-3z" fill="#38A0FC"/>
<path transform="translate(1600,150)" d="m0 0 5 2 6 5 3 3 5 1 8-1 8 2 9 4 11 7 4 1 8 4 3 1 7 8 7 10 8 14 3 8-1 5-1 1h-5l1 4 8 6 5 6-1 2-7-8-10-6-11-4-1-4v-12l-3-13-6-11-5-6-13-9-12-4-19-2-3-3h-3v-2l-3-1z" fill="#280248"/>
<path transform="translate(1555,137)" d="m0 0h12l8 2 1 5h-24l-15 5-11 7-10 10v2l5 2 8 8 2 3v5l-5-1-8-8-11-5h-13l-13 4-10 6-4 3h-4l-4 5-1 2h-2l-3 9-2 2 1-6 6-11 9-10 9-6 13-5 19-1 7-8 9-8 16-8 7-2z" fill="#379FFB"/>
<path transform="translate(1506,1385)" d="m0 0 9 1 6 3 4 5 2 5v7l-3 7-7 6-4 1h-9l-8-5-4-8v-9l4-8 7-4z" fill="#38A0FC"/>
<path transform="translate(414,1369)" d="m0 0h8l8 4 5 6 1 3v7l-3 7-7 6-3 1-13-1-7-6-2-4-1-9 4-9 5-4z" fill="#240445"/>
<path transform="translate(1553,293)" d="m0 0h14l3 1 1 5v33l-2 3h-5l-1-1v-14h-14l-2-1v13l-1 2-5-1-1-2v-21l3-8 8-7h2z" fill="#032B48"/>
<path transform="translate(492,152)" d="m0 0h18l9 6 16 16 2 5v12l5 5 3 5v10l-4 4-4 2h-7l-7-6-1-9 3-5 5-5v-12l-6-8-8-7v-2l-8-4h-13l-6 4-4 3-5-1-1 3-7 5-2-1 15-15z" fill="#DC01FA"/>
<path transform="translate(1078,327)" d="m0 0 5 1 1 31 4 7 15 14 6 3h8l2-4 5-4 7-1 7 5 2 4-1 9-6 5-2 1-9-1-8-7h-9l-9-7-16-16-3-5v-34z" fill="#DC01FA"/>
<path transform="translate(412,1363)" d="m0 0h15l2 1v2l3-1 5 5 5 8 1 3v9l-4 10-4 5-12 6h-10l-10-5-7-8-3-10 1-9 3-7h3v-2l8-6zm2 6-6 2-5 5-3 9 2 9 6 7 8 2h7l6-3 6-7 1-4v-7l-3-6-6-5-5-2z" fill="#0C3259"/>
<path transform="translate(450,816)" d="m0 0 3 1 1 2 6 3 2 3-1 4-3 3-8 2-1 2-14 3h-8l-12-3-9-5-4-3 1-4 8-7 5 1 9 3h12l10-3z" fill="#032B48"/>
<path transform="translate(967,344)" d="m0 0h4l1 4v35l-3 5-12 12-1 11-4 7-3 2h-10l-5-4-2-3v-9l3-5 6-3 10-1 9-8 3-3 1-3 1-26 1-10z" fill="#38A0FC"/>
<path transform="translate(974,888)" d="m0 0h15l22 1-4 1v2l5 1v1l-6 1-31 1-10 5-4 7-1 8-1 48-1 1h-5l-2-6v-48l3-10 3-4h2l2-4 8-4z" fill="#38A0FC"/>
<path transform="translate(427,742)" d="m0 0 16 1 8 2v3l4 2 5 3v3h-2l-2 4-4 3h-6l-11-3-13 1-8 3h-5l-7-8v-4l16-8z" fill="#05072F"/>
<path transform="translate(889,1472)" d="m0 0h87l37 1-4 4 2 1-27 1 2 3 24 2 2 4h-28l-4-3-1-5-44-1h-64v-1l22-1 1-1h19l3-1v-2h-27z" fill="#379FFA"/>
<path transform="translate(1608,252)" d="m0 0 5 2 6 5 6 10 3 10v72l-3 10-7 10-9 6-4 1v-4h-3v-2l8-5h2v-2l4-4 4-10 1-8v-60l-3-11-3-6-6-7 1-4z" fill="#DC01FA"/>
<path transform="translate(1008,145)" d="m0 0 14 2-4 4h-11l-10 2-11 4-11 7-10 9 2 4 8 6 1 4h2l1 2v6l-6-2-8-8-9-4h-17l-11 4-6 4-8 8v-3l8-8v-3l-5 1 4-4 12-5 7-2 15-1 8-7 6-6h2v-2l16-8 13-3z" fill="#369CF6"/>
<path transform="translate(1052,1262)" d="m0 0 7 3 5 4 6 10 2 9 7 10 4 10v10l-4 9-7 10-2 11-6 9-7 5-5 1 4-4h-12v-1l10-2 5-3 4-6 1-3v-7l-4-6-1-5v-3l5 2 5 4 3-3 3-6 1-4v-8l-5-10h-5l-5 5-7 1v-3l2 1v-2l-2-1 6-4 4-7-1-9-6-8-5-3-4-1v-2h4z" fill="#DB01F9"/>
<path transform="translate(393,760)" d="m0 0 4 1 5 6 2 1v6l-3 8-1 5v9l4 12-1 5-7 7-4-2-6-12-2-8v-15l4-13z" fill="#032A47"/>
<path transform="translate(430,667)" d="m0 0h28l4 1 5 2-1 2h-2v2l3 1h-30l-15 2-22 5-16 7-12 7h-3l-1-3-9 4v-3l13-9 15-8 14-5 17-4z" fill="#38A0FC"/>
<path transform="translate(438,665)" d="m0 0h15l13 2 6 3 5 5v2l4 2 3 5 7 6 4 1 3 6v2h-13l-5 1v-2l-44 1v17h-1v-18l1-1 16-1 5-2 6-2-2-1-27-1h-10v-1l7-1h45l-4-3v-2l-10-6-10-1h-26v-1l11-1h27v-2l2-1-6-2h-10v-1h-20l-12 1 1-2z" fill="#042A48"/>
<path transform="translate(998,1471)" d="m0 0 50 2 12 1v2l-2 1-17 1-2 8h-2v2l-4 2-45 1-5-2-1-2 30 1-2-3-24-2-2-4 3-1 22-1 1-3-34-1v-1z" fill="#042C4B"/>
<path transform="translate(417,1483)" d="m0 0h2l2 3v15l-7 8-9 10-6 3-54 1-6 7-2 1h-9l-7-6 1-2 4 4 7 2 1-2-2-2 4-1v-7l-1-2h-6l-2 1 2-4 2-3-4-2h10l7 6v2h55l8-7 3-4h2l2-5 2-7v-8z" fill="#379FFB"/>
<path transform="translate(1433,1292)" d="m0 0h54l53 1 6 2-1 3-2 1h-103v-1l26-1-2-2h-21l-9-2v127l-1 42h-15v-1h14v-168z" fill="#38A0FC"/>
<path transform="translate(1522,692)" d="m0 0h16l17 1v5l-1 1-35 1-13 2-9 5-6 5-5 7-5 13-2 4v14l-2 3-3-5-2-7v-11l4-10 6-10 8-8 11-6 8-3z" fill="#38A0FC"/>
<path transform="translate(1591,258)" d="m0 0h11l10 6 5 8 2 6 1 43v29l-4 10-4 7-9 4-12 1v-2h-7l-2-1h-12l-2-2 27-1 8-4 6-7 1-5 3 1 2-63-4-15-4-6-7-5-9-3z" fill="#020229"/>
<path transform="translate(1477,1321)" d="m0 0h7l6 4 3 3v2h17l9-2 7-7h5l-1 5-7 8-5 3-24 1-3 5-6 3h-8l-6-4-3-6 2-9 5-5z" fill="#379EF9"/>
<path transform="translate(1580,1289)" d="m0 0 4 1 2 5 3 1 1 2 3 1 1-2 13 2 1 2-9 2-8 1-6-1-3-3-4-1-6 3-4 3 1 4 1 2v8l-3 5-2 1-4 9-9 3h-2v11l1 5 6 4 3 1-1 4-12-3-3-3v-21l2-4 9-3 6-12-1-5-1-7 3-5 10-6 5-1v-2z" fill="#062C4D"/>
<path transform="translate(1012,1263)" d="m0 0h2v100l3 6 5 3 7 1 4-1 1-4 1-2 1-7-3-7v-3l3-1 4 7h2v3h14l1 2-5 3-10 1-1 6-5 5-5 4-8 1-13-5v-3l4 2 3-2-4-5-2-6v-9l-3-8v-78l2 1z" fill="#09395E"/>
<path transform="translate(1e3 915)" d="m0 0 5 1 6 1v5l1 2-2 4h2v11l-18 1-5-1-1 16-5 1-2-5v-20l2-6 5-6 5-3z" fill="#369CF7"/>
<path transform="translate(547,375)" d="m0 0h6l6 4 3 6-1 7-6 5-11 4-11 11-9 2-31-1-3-3h4l-3-6 9 3h26l6-4 7-6v-7l-1-5 4-6z" fill="#DC01FA"/>
<path transform="translate(507,271)" d="m0 0h7l5 3 5 4 8 3 9 7 3 5v35l-1 2-3-1-1-2-1-31-7-8-4-2-4 1-7 6-9 1-5-4-2-3v-9l5-6z" fill="#D801F7"/>
<path transform="translate(1048,345)" d="m0 0 2 1h3l1 34 4 6 10 9 13 3 5 5v10l-5 6-3 1h-7l-7-6-1-3v-10l-10-10-1-8-1-4h-2v5h-1z" fill="#D302F3"/>
<path transform="translate(1054,230)" d="m0 0h5l5 4 10 19-2 5-8 7-2 6 1 13 10 10-1 8-8 14-5 5-6-1v-2h3l-4-5 7-2 6-12-2-5-6-7-1-2v-20l7-8 2-2-1-6-6-10-4-1-2-1 1-2-6 1h-6l-3-3 1-2 4 2 7-1z" fill="#DB01F9"/>
<path transform="translate(1475,860)" d="m0 0h3l-2 5-3 1v4l5-5 7-5h2v41l-6-1-6-5-4-7-1-10-1 1v7l4 9 5 5-4 2-3-3-2-4-3-3-2-7-1-1 1-9 4-10z" fill="#04052D"/>
<path transform="translate(300,1469)" d="m0 0h8l5 2v2l3 1 2 3h14l7-7 4-1 1 5-3 5-2 3-7 3h-14l-6 7-5 2-10-2-5-5v-10l3-6z" fill="#0E446F"/>
<path transform="translate(967,1386)" d="m0 0 4 1 1 2v8l-4 7-8 7-1 5-1 9-6 7-9 1-5-3-5-6v-7l4-6 5-3 12-1 5-4 5-7 1-8z" fill="#359BF5"/>
<path transform="translate(1444,1488)" d="m0 0h101l16 2 1 2-19 2-36 1h-63l-6-1v-1l12-1v-2l-6-1z" fill="#38A0FC"/>
<path transform="translate(1624,808)" d="m0 0 12 2 12 5 5 4 1 3-3 5-9 4-10 2-25 3-15 1h-23v-1l15-1 2-2h-16l-8-1v-1l46-3 25-3 10-3-1-2-15-4-4-3z" fill="#DC01FA"/>
<path transform="translate(884,1497)" d="m0 0 85 1 30 1 8 1v3l-3 1-30 1h-88v-1l21-3-20-2z" fill="#38A0FC"/>
<path transform="translate(1008,359)" d="m0 0 4 2 2 6v19l6 5 2 5v10l-3 3-5 2-9-1-6-5-1-2v-6l2-6 4-4 1-20 2-7z" fill="#052948"/>
<path transform="translate(1505,809)" d="m0 0h6l2 2-1 4-17 6-1 2 14 2 9 2 20 2 5 1h7l4 3-4 2-6 1-29-1-18-3-12-5-2-3 1-7 6-4z" fill="#38A0FC"/>
<path transform="translate(466,761)" d="m0 0 4 1 4 4v3l3 3 1 6 1 2-1 3h2v14h-2l1 8-2 3h-2l-1 6h-2l-6-12-3-5v-11l-2-10-3-5v-2l5-5z" fill="#0E0233"/>
<path transform="translate(553,192)" d="m0 0h7l7 4 8 7 8 10 1 3v32l-3 5-11 12-4 4h-2v2l-5 4h-5v-4l7-8 14-14 2-5v-24l-3-7-4-5-2-1v-2l-4-2-6-4-6-2z" fill="#DC01FA"/>
<path transform="translate(569,667)" d="m0 0h8l6 4 3 5v11l-3 5-6 4-8 1-6-4-5-6-1-8 5-8 4-3z" fill="#DC01FA"/>
<path transform="translate(1446,779)" d="m0 0h11l7 4 3 5v10l-7 8-3 1h-8l-7-3v-3h-2v-3h-2l-1-2v-7h2l2-5z" fill="#0D416B"/>
<path transform="translate(447,175)" d="m0 0 2 3 2 12v59l-1 134-1 5h-1l-1-10z" fill="#032B48"/>
<path transform="translate(531,1278)" d="m0 0 5 1 6 4 3 6-1 7-4 5-2 1h-9l-6-4-4-3h-13l-8 7-4-1-1-2 6-8 4-3 4-1 13-1 4-5z" fill="#DC01FA"/>
<path transform="translate(501,1241)" d="m0 0 9 1 5 4 2 5-1 8-6 5-7 1-5-3-6-5-14-1h-41l3-2 28-1-6-1-26-1v-1l57-1 4-6z" fill="#DC01FA"/>
<path transform="translate(904,812)" d="m0 0 7 1 6 4 3 6v8l-3 6-4 3-10 1-8-4v-3h-2l-1-2v-12h2l2-4z" fill="#0E436D"/>
<path transform="translate(460,228)" d="m0 0 4 1 1 2v13h1v77l-1 3-4 1-2-3v-93z" fill="#092C4F"/>
<path transform="translate(1595,387)" d="m0 0 4 2 1 2 1 12 6 7 1 2v10l-4 5-6 3-9-1-6-6v-10l2-4 2-1 4-4 2-1v-15z" fill="#042745"/>
<path transform="translate(394,158)" d="m0 0 2 1-4 2-11 22-17 1-11 4-4 1v2l-3-1 5-10 9-10 11-6 8-3z" fill="#032B48"/>
<path transform="translate(882,1301)" d="m0 0h27l11 1 1 5-3 2h-32l1 163h-2l-1-20v-138l2-7 7-1h25l-1-2h-24l-12-1-1 169-2-1v-151l1-18z" fill="#38A0FC"/>
<path transform="translate(1597,1329)" d="m0 0 7 1 4 2 5 10-1 9-5 5-2 1h-10l-6-2-1-6h-2l-1-2v-7l3-1v-6l4-2z" fill="#03022A"/>
<path transform="translate(1665,960)" d="m0 0h9l6 4 3 4 1 8-3 7-5 4-8 1-7-4-5-7v-8l4-6z" fill="#DC01FA"/>
<path transform="translate(1595,1323)" d="m0 0h10l2 3-3 2 7 4 4 5v12l-4 6-5 4 3 1-1 3-5 2-10-1-5-2-8-6-4-9v-10l4-4h2l2-4 7-5zm2 6-5 2-4 2v6l-3 1v7l1 2h2l1 6 6 2h10l6-4 2-5-1-9-4-7-6-3z" fill="#0E2750"/>
<path transform="translate(877,254)" d="m0 0 4 4 4 13 7 13 9 11 2 1v4h-9l-7-3-8-6-5-6-2-7v-14l3-7z" fill="#020228"/>
<path transform="translate(1454,316)" d="m0 0h10l8 7 12 1 3 2v4l-2 1-11 1-9 7-9 1-6-4-3-4v-9l5-6z" fill="#0C4068"/>
<path transform="translate(1026,1403)" d="m0 0 5 1 1 18 6 4 3 6-2 8-5 5-5 1h-6l-5-4v-3l-2-1-1-5 2-7 7-5v-6l1-7z" fill="#032947"/>
<path transform="translate(1455,349)" d="m0 0h7l4 2 4 4 3 2 13 2 1 4-4 2h-11l-1 4-3 1v2l-6 2-8-1-6-4-1-4v-7l3-4 2-2z" fill="#0F4672"/>
<path transform="translate(1106,677)" d="m0 0 8 1 5 3 3 5v10l-5 6-4 2h-9l-7-6-2-5 1-8 5-6z" fill="#DC01FA"/>
<path transform="translate(990,1403)" d="m0 0 4 2 1 16 7 6 1 2v7l-3 6-4 3-8 1-6-4-1-3-2-1v-9l4-5 4-3 1-16z" fill="#38A0FC"/>
<path transform="translate(1607,1467)" d="m0 0 89 1 5 2-1 6-8 8-9 4h-113l2-2 110-1 6-2 6-4 4-6 1-3-13 1h-62l-31-1-1-2z" fill="#260345"/>
<path transform="translate(1047,891)" d="m0 0 5 2 6 7 4 10v53l-4 1-3-2-1-3-1-48-2-7-4-5h3l-1-4z" fill="#DA01F9"/>
<path transform="translate(1649,860)" d="m0 0 6 1 5 4 4 6 2 5v9l-3 6-7 8-6 2-1-1-1-31z" fill="#0D0433"/>
<path transform="translate(1660,316)" d="m0 0 9 1 5 5 1 2v9l-6 6h-10l-8-6-14-4v-4l3-1 12-1 5-6z" fill="#DC01FA"/>
<path transform="translate(1527,389)" d="m0 0 3 1 1 12 8 10v8l-4 6-3 2h-9l-4-2-3-4v-10l5-6h2l2-15z" fill="#38A0FC"/>
<path transform="translate(473,1449)" d="m0 0h3v2h-2l-1 3-7 4-2 4 6-1h4v2l-10 4-11 3-15 3v1h-7v1l-8 1h-12l-20-3v-1l20 1 1-3-10-2-15-5-2-2 5 1 15 4 10 1h18l4-1 9-2 3-1 2-2 8-3z" fill="#032B48"/>
<path transform="translate(1659,350)" d="m0 0h7l7 4 2 3v9l-4 5-3 2h-9l-8-7-12-2-3-2 1-3 6-1h7l3-1 2-4z" fill="#DC01FA"/>
<path transform="translate(1531,262)" d="m0 0 53 1 15 2 6 4 5 7 1 3v53l-3-3-1-6-1-40-3-8-5-4-4-1h-50v-1l27-1v-3l-44-1z" fill="#032B48"/>
<path transform="translate(1007,249)" d="m0 0h7l2 2v4l-4 1h-6l-8 4-5 5-2 7v8l4 8 8 5 4 1v2h9l1-2 2 5-9 3-11-2-10-8-5-9v-13l4-10 9-8 9-2z" fill="#379FFB"/>
<path transform="translate(1522,201)" d="m0 0h9l6 4 2 3-1 10-7 7-1 13-4 1-2-4-1-10-7-8-1-6 2-5z" fill="#38A0FC"/>
<path transform="translate(1054,1397)" d="m0 0 5 4 5 5 6 2 8 1 4 2 3 5v9l-5 6-4 2-8-1-6-6-1-8-1-7 2-2-1-3-5-5z" fill="#DB01F9"/>
<path transform="translate(938,326)" d="m0 0 4 2 1 4v30l-4 6-19 19-5 3-13 1 1-3 14-2 4-4-5 2-3 1-9-1-3-4 7 2 7-1 19-19 1-3 1-31z" fill="#38A0FC"/>
<path transform="translate(949,1298)" d="m0 0 11 6 5 1-2 4v8l3 6-1 4v-3l-6 1-8 6-4-2-4-10v-11l3-7z" fill="#032B48"/>
<path transform="translate(466,1347)" d="m0 0 4 4 7 14-1 5-7 6-1 2v16l7 6 2 3-1 7-1-2-3 1 1 7-6 9-2-3-10-1-2-2 9 1 5-7 2-8-5-5-3-4-1-3v-14l2-5 7-8-2-6-1-4 3 2-1-6-2-2z" fill="#DB01F9"/>
<path transform="translate(943,978)" d="m0 0 97 1-4 2 5 1v4l-30 1-2 1h-138v-1l118-1 6-1v-2l3-1-3-1-38-1-14-1z" fill="#032B49"/>
<path transform="translate(489,918)" d="m0 0 5 2 2 3v22l-7 8-6 5-5 5-4 2-4-1 1-6 4-1 2-4h2l2-5 3-6 1-20z" fill="#08274A"/>
<path transform="translate(438,171)" d="m0 0 3 3 2 5 2 8v187l-2 12h-1v-199l-2-7-2-3-1-5z" fill="#032A47"/>
<path transform="translate(969,1498)" d="m0 0h58v1l37 1 2 2-1 1-8 1-35 1-13 1-106 1-11-1v-1l88-1 24-1 2-2-7-1-30-1z" fill="#032B48"/>
<path transform="translate(359,1269)" d="m0 0 9 1 5 4 2 5-1 8-5 5-2 1h-10l-6-6-1-8 3-6 3-3z" fill="#38A0FC"/>
<path transform="translate(1042,311)" d="m0 0 10 2 4 3v2l-5 1-4-2-7 1-8 5-1 4-3 5-2 8-4 3-23 1-5-3-2-3-2-11-5-5 5 2 2 2 3 12 1 2 9 1h2l1-3-9-3-3-11 1-3 3 9 1 4 3 1h14l2-3 1-7 2-3 11-7 3-3z" fill="#072A4C"/>
<path transform="translate(412,158)" d="m0 0 12 1 9 5 5 5 1 8 2 2v15l-3 3-2-1-2-8h-2l-5-10-5-6-2-1v-2l-6-3v-2l-3-1z" fill="#04052D"/>
<path transform="translate(1654,1421)" d="m0 0 4 1-1 5-7 8-2 2-5 1h-21l-6 7-3 1h-9v-1h5v-2h4l2-6-3-7-6-1-3 2-2-1v-2h-2l2-4 5-2 8 1 6 5 4 4 18-1 6-4z" fill="#DB01F9"/>
<path transform="translate(412,1363)" d="m0 0h15l7 6 1 3-3 1v-2l-6-2-1-1-12 1-6 4-3 1-3 11 2 9 5 6 5 3 12 1-4 1v2h6v1l-5 1h-11l-9-6-5-6-2-5v-11l4-9 5-5 4-3z" fill="#389FFB"/>
<path transform="translate(552,726)" d="m0 0 5 5 8 13 5 11 4 13 2 6 4 1 5 7 1 5v11l-1 3h-2l-1 2v9l4 15 3 8v9l-3 6-1-2 1-2v-12l-5-14-6-28-4-24-4-13-6-14-8-12z" fill="#240243"/>
<path transform="translate(1553,294)" d="m0 0 11 1 2 4-3 1-8 1-5 4-2 7h10l5-1 2 1 1-2 1 4-2 3-4 1-13 1-1 13-1 2-5-1-1-2v-21l3-8 8-7z" fill="#38A0FC"/>
<path transform="translate(1560,201)" d="m0 0 8 2 3 4v9l-3 5-4 5v12h-4l-1-2-1-11-5-5-3-5 1-7 3-5z" fill="#38A0FC"/>
<path transform="translate(471,1479)" d="m0 0h7l5 3 3 5v8l-5 6-3 1h-8l-5-4-2-4v-8l3-5z" fill="#D302F3"/>
<path transform="translate(446,1419)" d="m0 0h7l6 2h6l1 4-2 2-7-1-5-2-5 1-8 4-3 6-2 10-2 2-12 2-15-1-2-2-4-14-9-5h-11l4-2h8l9 5 3 6 2 10h11l-2-5 5-1 9-2 1-8 4-2 9-7z" fill="#042947"/>
<path transform="translate(1056,821)" d="m0 0h3l-2 4-20 20-9 5-4 2-5 1h-24l2-2 6-1 1-4-13-1-2-2 33 1 2-1 8-2 1-3 8-7 10-6z" fill="#032B48"/>
<path transform="translate(1623,806)" d="m0 0 8 1 10 3 10 5 4 4-1 7-9 6-21 4-17 2h-12l-3-2 24-2 21-3 10-3 4-2 2-5-5-5-12-5-12-3v5l6 3 12 3 2 3-6 3-21 3h-7l3-2 6-2 2-5v-9z" fill="#260345"/>
<path transform="translate(1590,202)" d="m0 0h8l5 3 2 3v8l-7 8v13h-4l-2-9v-5l-4-2-3-3-1-9z" fill="#032B48"/>
<path transform="translate(1622,725)" d="m0 0h6l6 4 2 4 1 9-2 7-7 7-8 2-6-11-1-5h6l5 2 4-2-4-10-5-3v-2z" fill="#07081B"/>
<path transform="translate(484,201)" d="m0 0h4v2l1 1 5 4v6l2 4 3-3v-8l-1-4 3 3 1 8-3 6-5 2-2 10-1 3 1 4h2l3 4-1 2-8-7-2-3-1-13-6-5v-2l-2-1 2-9z" fill="#0C224A"/>
<path transform="translate(1e3 674)" d="m0 0 7 1 1 1v25l-3 7h-8l-2-2-1-10 1-21z" fill="#05022B"/>
<path transform="translate(974,887)" d="m0 0h46v1l21 1 7 3 3 4-1 4-9-4h-66v-1l31-1 3-1-2-1v-2l-33-2z" fill="#032B48"/>
<path transform="translate(1024,1245)" d="m0 0 7 2 6 3v2h2v3h2l2 4 2 1v2h7l1 4-5-1v2l-5-1-2 6-1 2h-2l-1 3-5-2 1-3h2v-4h2l-1-4-1-7-8-4-7 1-3 1-2 4-5 1v-4l-2-2 3-1 3-4z" fill="#042C4B"/>
<path transform="translate(1528,358)" d="m0 0h38l14 1 3 1 11-1 2-1h7v5l-7 3v-2l-4 2h-62l-6-1v-1l34 1-1-3 1-1-30-2z" fill="#042A48"/>
<path transform="translate(461,353)" d="m0 0 4 2 1 3 1 21 4 5 6 5 7 8 10 10v3l-5-1-10-10-4-2-8-8-2-4-5-4-1-9v-16z" fill="#052A49"/>
<path transform="translate(415,1296)" d="m0 0h9l7 1 3 1h7l3 2 4 2 11 2 6 2v2h3v2h-5l6 4 1 3 5 1 4 5v3l-4-2-10-7-18-9-7-1-5-1-7-1-17-1v-1l21-1v-1l-16-3z" fill="#042A49"/>
<path transform="translate(1617,331)" d="m0 0h2v22l-7 14-9 4-12 1v-2h-7l-2-1h-12l-2-2 27-1 8-4 6-7 1-5 3 1 2-19z" fill="#05081A"/>
<path transform="translate(494,341)" d="m0 0 2 2v7l3 4v2l3 1 2 11-4 4-4 2-7-1-5-6v-8l5-6h2v-2h2l-1-7z" fill="#032B48"/>
<path transform="translate(1527,247)" d="m0 0h63v1l16 3 5 5v3l-6-2-5-2-75 1v-1l5-1h36v-2h9l-1-2-16-1-31-1z" fill="#032B49"/>
<path transform="translate(1692,1491)" d="m0 0 2 1-4 3-3 1-21 1-203-1v-1l45-1h168l14-2z" fill="#240445"/>
<path transform="translate(920,973)" d="m0 0 2 3h73l38 1h51l6 1v2h-50l-97-1h-23z" fill="#260345"/>
<path transform="translate(1599,1321)" d="m0 0 9 1 9 6 5 9v13l-4 7-7 6-5 1 3-4h-7l4-2 6-5 2-4v-12l-4-5-9-4v-1l5-1-1-2h-14l3-2z" fill="#DC01FA"/>
<path transform="translate(1508,1392)" d="m0 0 7 1 4 4 1 8-4 6-7 2-6-2-4-5v-7l4-5z" fill="#032B48"/>
<path transform="translate(1035,1348)" d="m0 0 4 5 2 2 1 3h14l1 2-5 3-10 1-1 6-5 5-5 4-8 1-13-5v-3l4 2 3-2-4-5-1-4h2l3 6 5 3 7 1 4-1 1-4 1-2 1-7-3-7v-3z" fill="#032B48"/>
<path transform="translate(436,1251)" d="m0 0h26l9 1-3 2-28 1-8 7-9 10-1 16-2 3-4-1v-16l3-7 3-3 6-7z" fill="#062F50"/>
<path transform="translate(998,913)" d="m0 0h15l3 2 1 5v28l-1 8-1 1h-6l-1-1v-15l-15 2-1 13-1 1h-6l-1-1v-5l2 4h4l1-14 1-2h10l12-1 1-10h-2l1-5-1-5-8-2-9 1-5 2 5-5z" fill="#042947"/>
<path transform="translate(1692,246)" d="m0 0 4 3 3 8v14l-5 9-9 8-4 2h-5l3-7 6-5 5-9 1-2v-13l-1-6h2z" fill="#020228"/>
<path transform="translate(1076,745)" d="m0 0 5 2 7 8 1 3v8l-4 7-6 5h-3l-1-30z" fill="#09071F"/>
<path transform="translate(1138,909)" d="m0 0h2l5 25 5 31 2 9-1 9-6 5-4 1h-52l-80-1v-1l133-1 6-4 1-6-4-26-5-31z" fill="#260345"/>
<path transform="translate(1505,306)" d="m0 0h1l1 24 2 16 2 8h2l6 7 2 2-2 1 1 2-5 2h-3l-7-8-3-8 2-43z" fill="#02082D"/>
<path transform="translate(413,1329)" d="m0 0h14l2 5h4l1-5h1l-1 8h2l7 7 1 2 4 2 8-1 2-1h6l2 1 4 7v5l-5-4-2-3-7-1-8 2-9-2v-2l-5-1-5-5-1-8-1-3h-17z" fill="#082A4D"/>
<path transform="translate(1559,392)" d="m0 0 2 4 2-4 1 5v7l6 5 2 6v6l-3 3 1-6-3 1-2-6-5-1-3 1-1 6 3 2 5 1-2 5 2 1-9-1-5-6v-8l2-3h2v-2l4-4v-7z" fill="#379FFA"/>
<path transform="translate(1525,372)" d="m0 0 17 1 55 1 5-1 3 1v4l-8 2-20 1h-17l4-2 5-1v-1l-38-2-7-1z" fill="#032B48"/>
<path transform="translate(1010,145)" d="m0 0h8l12 3 7 3 6 2v3h3v2h3l-1 2 1 4 1 2h-5l-8-5v-2l-11-3-5-2-6-1h-12v-2l10-1 6-2-9-2z" fill="#192256"/>
<path transform="translate(1521,256)" d="m0 0h9l3 3-3 3-12 7-5 6-4 4-2 3-3-7v-5l9-10z" fill="#04072F"/>
<path transform="translate(935,746)" d="m0 0h2v31l-2 1-4-2v-2h-2l-4-7v-10l6-8z" fill="#032B48"/>
<path transform="translate(1560,1322)" d="m0 0h5v3l-4 9-9 3h-2v11l1 5 6 4 3 1-1 4-12-3-3-3v-21l2-3 10-2 3-5z" fill="#38A0FC"/>
<path transform="translate(1611,281)" d="m0 0h1v70l-2 4-6 7-1-4h-7l5-4 3-4 1-6 1-31h1l2 16 1 1v-37z" fill="#DC01FA"/>
<path transform="translate(1008,361)" d="m0 0 3 1 1 25 3 3v6l-7-1-4 2 1 5 3 2v5h5l-2 2-7-2-5-4-1-2v-6l1-3 7-5 1-8v-19z" fill="#379FFA"/>
<path transform="translate(524,785)" d="m0 0h17l10 5v5h-7l-11-2-9 2h-8l-1-4z" fill="#DC01FA"/>
<path transform="translate(1538,973)" d="m0 0 5 2 9 3 9 1v1h30l1 3-4 2-6 1-35 1-8-3 3-1 6 2 2-4-11-6z" fill="#032B48"/>
<path transform="translate(1014,1259)" d="m0 0h1l1 25v70l1 15-3-3-1-5v-101z" fill="#250345"/>
<path transform="translate(1054,237)" d="m0 0 4 1 6 9 2 5-1 4-7 7-1 2v20l9 12-3 9-5 7h-9l-7-1-5 1 4-5h7l3 2h5l5-8 2-5-6-5-3-5-2-7v-11l4-8 7-6-1-7-5-8-4-2z" fill="#250345"/>
<path transform="translate(1655,867)" d="m0 0 7 3 3 9-1 8-6 8h-2l-1 3h-2l2-5-3-3 1-21z" fill="#030817"/>
<path transform="translate(325,1508)" d="m0 0h6v3l-2 3h6l2 3-1 7-2 2v3l-2 1-7-3-5-4v-11l2-3z" fill="#0C3F67"/>
<path transform="translate(1607,1467)" d="m0 0 75 1 4 1v2h-62l-31-1-1-2z" fill="#270246"/>
<path transform="translate(1567,137)" d="m0 0 10 1 14 6 1 2 5 1 6 6 3 5 4 2 2 3-1 4-3 1-2-6-4-2-8-7-4-1v-2l-11-3-8-2v-2h4v-4l-8-1z" fill="#032B49"/>
<path transform="translate(1579,294)" d="m0 0 4 2-1 20v16 3h-5l-2-5v-22l1-12z" fill="#052F4F"/>
<path transform="translate(1686,1470)" d="m0 0h13l-1 5-6 7-5 3h-10l-3-4 2-5 9-2-2-1-7-1v-1z" fill="#030817"/>
<path transform="translate(393,225)" d="m0 0h6l10 5 8 7 6 12-2 4-4-1-3-6-8-9-12-7-2-4z" fill="#38A0FC"/>
<path transform="translate(1599,1428)" d="m0 0h2v2l4-1 5-1 5 5 1 5-3 5h-4v2l-7-1-4-4v-2l-2-1 2-8z" fill="#042A49"/>
<path transform="translate(394,313)" d="m0 0 4 1 7 12 6 5 11 6-1 4-8-1-9-5-8-9-3-6v-6z" fill="#38A0FC"/>
<path transform="translate(1475,860)" d="m0 0h3l-2 5-3 1v8l-1 7v7l-2-4v-7l-1 2v7l4 9 5 5-4 2-3-3-2-4-3-3-2-7-1-1 1-9 4-10z" fill="#032C49"/>
<path transform="translate(1555,664)" d="m0 0h25l3 1 1 3v22l33 1 14 3-4 1-16-2-30-1-2-2v-22l-15-2-11 1v-2z" fill="#200A47"/>
<path transform="translate(581,254)" d="m0 0 4 2v7l3 6v3h2v2l-3-1h-9l-3 2-7-1 1-5h2l1-5 6-5z" fill="#030818"/>
<path transform="translate(460,1388)" d="m0 0 2 2 2 6 1-4 2-4 2 7 6 5 2 3-1 7-1-2-3 1 1 7-6 9-2-3-10-1-2-2 9 1 5-7 2-8-5-5-3-4z" fill="#DC01FA"/>
<path transform="translate(1583,699)" d="m0 0h32l16 3 4 3-10-2-16-2h-25l1 8 25 1 15 2 9 4 7 8-1 2-7-8-10-4-9-1-31-1-4-2 1-3v-6z" fill="#240445"/>
<path transform="translate(531,872)" d="m0 0h6l8 3 10 1 2-1-2 4-8-1-10-3-6-1 2 5 9 4 10 2 1 2-7 20-3 6-4 3-10-1-21-7-10-4 3-1 23 8 11 2h5l6-12 5-14-12-2-9-5-1-7z" fill="#250345"/>
<path transform="translate(1517,875)" d="m0 0 21 3 10-2h6v3l-2 2-12 3h-10l-11-3-3-2z" fill="#38A0FC"/>
<path transform="translate(576,325)" d="m0 0 3 2v6l-6 8-13 13-2-1-1-5 2-4h2v-2l7-6 4-7h2v-2h2z" fill="#030817"/>
<path transform="translate(964,756)" d="m0 0 9 2h11l11-1 1 3-2 3-13 3-9-1-7-2-3-3z" fill="#38A0FC"/>
<path transform="translate(1100,946)" d="m0 0 10 2 22 1 6 2 3 17v9l-2 2-4 1-32-1-2-7-1-12zm1 3 2 27 2 2h33l2-1-1-13-2-11-2-2-26-1z" fill="#260345"/>
<path transform="translate(502,1419)" d="m0 0h2l2 7 5 5-1 4-3 2-12 3h-3l-1 4-4 2 2-4 9-14z" fill="#030818"/>
<path transform="translate(1621,812)" d="m0 0 3 4 15 2 5 3-3 3-14 3-17 1 3-2 6-2 2-5z" fill="#020327"/>
<path transform="translate(1619,279)" d="m0 0h2l1 4v60l-2 12-6 10-2-1 5-8 2-6z" fill="#260345"/>
<path transform="translate(533,388)" d="m0 0 4 1 2 2-1 5-7 7-4 2h-9v-4l3-4h3l1-3 3-1 1-2h2v-2z" fill="#020229"/>
<path transform="translate(424,767)" d="m0 0h14l5 2 2 5 4 1 3 6v3l-6-2-13-8-9-3-1-3z" fill="#04071A"/>
<path transform="translate(1022,1478)" d="m0 0h14l-1 2-2 3h-39l-7-1v-2l2-1z" fill="#340253"/>
<path transform="translate(432,966)" d="m0 0h7l4 4-1 7-5 4-6-1-4-4v-6l3-3z" fill="#070C32"/>
<path transform="translate(1e3 920)" d="m0 0h8l2 8-2 5-10 1-8-2 2-5 6-5h2z" fill="#03052A"/>
<path transform="translate(1625,765)" d="m0 0 3 1-5 3 3 4-1 4 9-2-4 3-9 3-8-1-2-1v-10l3-2z" fill="#0C2047"/>
<path transform="translate(569,674)" d="m0 0h6l5 6v5l-6 5-7-2-3-5 1-5z" fill="#090720"/>
<path transform="translate(457,1247)" d="m0 0h37l-1 3h-57v2l-10 8-3 4-2 2v-4l13-13 2-1z" fill="#230545"/>
<path transform="translate(1016,755)" d="m0 0h33l4 4-2 4-15 5-10-2-8-3-1-2 10 2 4 2 16-3 4-1-1-3-7 1-5 1h-8l-7-2v-2l-7 1-1 2z" fill="#4B056C"/>
<path transform="translate(1425,1470)" d="m0 0h9l2 1v2l4 2 1 3 4 2 1 4-3 2-5-1-6-3-5-6v-2h-2z" fill="#020227"/>
<path transform="translate(1470,1382)" d="m0 0 1 3-2 7 2 3h3l-1-8 2-1 2 6 3 6 1 14-3 5-2-1 1-6v-8h-1l-1 11-5 8-2-2 1-4 3-4 1-6-2-6-5-7 3-9z" fill="#379FFA"/>
<path transform="translate(578,272)" d="m0 0h9l1 2h-8l-6 4-2 4 1 7 3 4v2l4 2 1 33-2 7-23 23-2-1 21-21 3-5v-35l-6-5-3-6 1-7 6-7z" fill="#260345"/>
<path transform="translate(1614,875)" d="m0 0 5 1-1 4-8 3-4 1h-10l-10-2 4-3-4-3 19 1z" fill="#DC01FA"/>
<path transform="translate(1594,720)" d="m0 0 18 1 2 4 2 1v2l2 1-6 4-6-1-5-1-5-6z" fill="#030817"/>
<path transform="translate(1133,952)" d="m0 0 4 1 3 18v6l-7 1-2-1-1-7h2v-2h2l-4-8v-5l3-2z" fill="#030817"/>
<path transform="translate(1485,712)" d="m0 0 2 2-4 6-2 5-2 11v14l-2 3-3-5-1-6v-9l2-8 7-11z" fill="#032B48"/>
<path transform="translate(1654,706)" d="m0 0 7 3 6 11 1 8-2 4 1 2v10l-2 8h-1v-17l-3-12-1-3-4-4-2-8z" fill="#050819"/>
<path transform="translate(548,1377)" d="m0 0h4l4 6-1 7-11 14h-2l-1-7 3-5 4-1-1-3v-9z" fill="#030818"/>
<path transform="translate(591,276)" d="m0 0h2l4 8-1 7-7 8v31l-2 9-9 10-20 20-3-1 10-9 18-18 3-7v-29l1-9 6-5 1-7-2-5z" fill="#260345"/>
<path transform="translate(517,166)" d="m0 0 4 2 7 7 3 5v12l-4 5h-2l-2 5 1 9 6 5h7l5-3h2v-12l-1-4 3 3 2 10-5 6-5 3h-8l-6-3-4-7v-8l5-6 3-2v-13l-6-8z" fill="#260345"/>
<path transform="translate(908,236)" d="m0 0 4 1 9 6 6 9-1 4-5-1-7-7-8-5-8-1h-6l4-3h8l9 4 2-1-7-5z" fill="#38A0FC"/>
<path transform="translate(1023,914)" d="m0 0 4 1 3 3v11h-1v-10l-1 3-1 29-1 3-3-1-1-38z" fill="#042A49"/>
<path transform="translate(1572,1467)" d="m0 0h13l3 1v2l-4 3-38-1-4-3 3-1h17z" fill="#370356"/>
<path transform="translate(1560,758)" d="m0 0 2 1-1 3h5l-5 4-2 2v6l-5-2-2 2 1 11 2-1 1 6-5 1-2-3v-18l4-8z" fill="#38A0FC"/>
<path transform="translate(521,1425)" d="m0 0 2 1-12 10-17 11-12 6-4-1 5-6h2l2-4 3-2-1 4h2l1-4 15-4z" fill="#120234"/>
<path transform="translate(1018,756)" d="m0 0h5v2l7 1h8l8-2 5 1v3l-4 2-17 3v-2l-10-1v-2h-3l-1-4z" fill="#032B48"/>
<path transform="translate(386,276)" d="m0 0h8l8 4 1 5-3 1-6-2h-16l-2-4 5-3z" fill="#369BF5"/>
<path transform="translate(1121,899)" d="m0 0 5 5 5 17-1 4-9-3-1-3v-16z" fill="#020229"/>
<path transform="translate(470,1477)" d="m0 0h7l6 3 5 6v8l-3 6-6 4h-9l-6-4-4-8 1-6 3-7zm1 2-6 3-2 5v8l5 6 2 1h8l5-3 3-4v-8l-4-6-4-2z" fill="#29064B"/>
<path transform="translate(894,301)" d="m0 0 30 1 4 2-1 5h-30l-9-2-2-2 8 1h23l4-1-19-1-8-2z" fill="#38A0FC"/>
<path transform="translate(1560,411)" d="m0 0 5 1 2 2 1 4h2v5l2-2-1 4h-2l-1 3-6-1-1-3 2-1-7-3-1-3 2-5z" fill="#0D2C54"/>
<path transform="translate(1655,351)" d="m0 0 2 1-4 5-3 2h-8l-5 1v2l5 2 9 1 8 7h9l6-6v-11l2 1 1 8-3 6-6 5h-9l-7-4-1-3-12-2-4-2 1-7 1-1h11l5-3z" fill="#260345"/>
<path transform="translate(1611,375)" d="m0 0v3l-9 3-10 2h-58v-1l63-3 12-3z" fill="#410260"/>
<path transform="translate(1596,355)" d="m0 0 2 2h-2v2l-2 1-12 1-2-1-14-1-38-1v-1z" fill="#3A0359"/>
<path transform="translate(467,762)" d="m0 0 3 2v7l3 1-1 6v3l-2 1-1 3-3-1-1-8h-2l-2-7 1-3z" fill="#030816"/>
<path transform="translate(480,164)" d="m0 0h5l-2 4-7 8-7 6-5 5-4 1v-2l-2-1 1-2h2l2-4 9-7 5-4h2z" fill="#032B48"/>
<path transform="translate(1658,1426)" d="m0 0v3l-10 10-3 1-23 1-5 5-3 2h-10l-6-5 1-3 5 4v2l12-2 6-7h21l6-2z" fill="#2C024B"/>
<path transform="translate(1599,1326)" d="m0 0 9 4 5 4 2 3v12l-4 6-5 4-9 1-6-3 4-1h10l5-3 2-5-1-9-3-4v-3l-6-2h-5l-5 2-2-2z" fill="#320352"/>
<path transform="translate(339,883)" d="m0 0h6l3 3 1 5-3 5-6 1-5-5v-5z" fill="#022443"/>
<path transform="translate(1106,684)" d="m0 0h6l4 5-1 5-3 3-4 1-5-3-1-6 2-4z" fill="#0B0721"/>
<path transform="translate(1554,301)" d="m0 0h8l1 1v9l-6 2-9-1 1-7z" fill="#040B31"/>
<path transform="translate(574,213)" d="m0 0 3 3 1 4v24l-3 6-19 19-2 5h5l3-3 2 1-6 5-4 1-3-2 1-7 8-7 14-14 1-2v-29z" fill="#260345"/>
<path transform="translate(485,199)" d="m0 0h8l5 4 2 4v8l-4 5-2-1v-3l-1-4-1-5-5-2-1-2h2v-2l-8 3 2-4z" fill="#DC01FA"/>
<path transform="translate(1033,1307)" d="m0 0h9l5 3 1 6-18 1-1-6z" fill="#450365"/>
<path transform="translate(1558,938)" d="m0 0 8 1 12-1 1 5-7 3h-12v-2h-3l-1-4z" fill="#0B3D64"/>
<path transform="translate(1668,966)" d="m0 0 6 2 2 2v8l-7 3-5-4-1-6z" fill="#100629"/>
<path transform="translate(482,907)" d="m0 0 10 3 16 6 19 6 5 1h9l7-4 3-3-1 4-5 4-8 2-10-1-19-6-20-7-7-3z" fill="#260345"/>
<path transform="translate(1443,292)" d="m0 0 11 1 24 1 2 1-1 5-3 1h-23l-12-2 4-1h32v-2h-22l-12-3z" fill="#38A0FC"/>
<path transform="translate(1145,270)" d="m0 0h3v8l-6 10-4 5-5 2v-6l4-5 5-9 3-2z" fill="#030818"/>
<path transform="translate(509,320)" d="m0 0 3 1-1 5-10 9-4 8-3-3 1-2-2-1-1 2 1-4 5-6 8-7z" fill="#DC01FA"/>
<path transform="translate(1596,1380)" d="m0 0h16l9 7 7-2-3 4-4 1-8-6h-20l-5 5-2 3-6-1-1-3 6 1 2-4 4-4z" fill="#370255"/>
<path transform="translate(1137,1481)" d="m0 0h9l1 2-4 6-6 4-5-1v-9z" fill="#020228"/>
<path transform="translate(1658,341)" d="m0 0h12l-1 2 3 2v2l2 1-1 4-9-3v-2h-7v2l-4-1v-5l5-1z" fill="#030816"/>
<path transform="translate(1565,675)" d="m0 0 7 2v14h-8l-2-2 1-13z" fill="#040916"/>
<path transform="translate(492,357)" d="m0 0 7 1 2 2-1 5-3 4h-6l-3-3-1-5 3-3z" fill="#510674"/>
<path transform="translate(1448,231)" d="m0 0h8l7 4 4 1v2l4-4 7 8v5l-6-1-1-3-4-2-5-4-6-3h-13l2-2z" fill="#38A0FC"/>
<path transform="translate(1102,884)" d="m0 0 5 1v2h-2l1 9v14l-3 4-2-5v-21z" fill="#020229"/>
<path transform="translate(1592,984)" d="m0 0m-10 1h10v2l-8 2h-30l-6-1 2-2z" fill="#510270"/>
<path transform="translate(574,238)" d="m0 0 2 1v7l-7 8-3 3h-3v-6l3-5h2v-3z" fill="#030817"/>
<path transform="translate(986,679)" d="m0 0h5l1 6-3 1-1 7-4 2-3-6-1-7 4-2z" fill="#030719"/>
<path transform="translate(1606,1428)" d="m0 0 6 1 3 5-2 4h-2l1 3-4 1-4-2 3-1-5-1v-6h2z" fill="#23094B"/>
<path transform="translate(1049,1386)" d="m0 0 4 2v7l4 6 5 5 1 4h-4l-5-5-6-7v-10z" fill="#032B48"/>
<path transform="translate(1034,1327)" d="m0 0 4 1-1 5-2 4-4 3-6 4h-4l-1-4 8-6h2l1-4h2z" fill="#042A49"/>
<path transform="translate(989,1428)" d="m0 0h6l2 2v6l-3 4-7-1-2-4 1-5z" fill="#03082F"/>
<path transform="translate(1071,1414)" d="m0 0 6 1 2 3-1 7-3 2-4-1-4-4v-5z" fill="#020229"/>
<path transform="translate(1593,974)" d="m0 0v3l-9 3h-23l-14-2-2-2h42z" fill="#220745"/>
<path transform="translate(1698,261)" d="m0 0h1v10l-5 9-6 6h-2l1-3-1-3 4-5 4-9h2z" fill="#030817"/>
<path transform="translate(982,1329)" d="m0 0 4 1 6 7 7 4-2 4-5-1-8-6-3-7z" fill="#38A0FC"/>
<path transform="translate(943,1415)" d="m0 0h6l3 4-1 5-4 3-5-2-2-2 1-7z" fill="#050D34"/>
<path transform="translate(502,1247)" d="m0 0h5l4 5-2 6-6 1-4-4v-5z" fill="#030422"/>
<path transform="translate(1659,314)" d="m0 0 9 1 3 3-11-1-5 3-3 4-15 1v4l14 3 1 2-15-1v-2h-2v-6l5-3h11l5-6z" fill="#260345"/>
<path transform="translate(471,1485)" d="m0 0 7 1 2 2v7l-3 1h-6l-3-5 1-4z" fill="#100434"/>
<path transform="translate(1469,355)" d="m0 0 4 2 13 2 1 4-4 2-12 1v-3l-1-4z" fill="#379EFA"/>
<path transform="translate(981,1285)" d="m0 0h7l8 6 2 4v5h-3l-7-8-6-4z" fill="#38A0FC"/>
<path transform="translate(361,1275)" d="m0 0 5 1 2 3v6l-2 2h-6l-3-4 1-5z" fill="#040C32"/>
<path transform="translate(1583,699)" d="m0 0h32l16 3 4 3-10-2-16-2h-25l1 9-5 1v-4-6z" fill="#260345"/>
<path transform="translate(1555,664)" d="m0 0h25l1 1v26l-2-1v-22l-15-2-11 1v-2z" fill="#790298"/>
<path transform="translate(419,1503)" d="m0 0v3l-5 5-3 5-3 1v2h-2v2l-6 2h-55v-1l54-1 6-3z" fill="#032B48"/>
<path transform="translate(492,919)" d="m0 0 4 4v22l-6 7-2-1 4-5v-19l1-4z" fill="#720291"/>
<path transform="translate(998,810)" d="m0 0h5l4 2 6-2 2 1 1 1-2 4-10 2v-2h-6l-2-2v-3z" fill="#38A0FC"/>
<path transform="translate(1035,681)" d="m0 0 2 2h-2l3 9h3l-1 8h3l-1 3-3 1-3-1-3-6v-9z" fill="#350254"/>
<path transform="translate(1006,395)" d="m0 0h2v2h-2l1 5 4 1 3-1 3-3 3 5-2 5-6 2-4-2v-5l-4-2-1-5z" fill="#063354"/>
<path transform="translate(1481,1327)" d="m0 0 4 2 1 2v6l-2 2h-6l-3-5 3-6z" fill="#031135"/>
<path transform="translate(1031,1283)" d="m0 0 6 1-1 3-7 4-4 8-5-1 1-5 5-7 5-1z" fill="#032C49"/>
<path transform="translate(904,821)" d="m0 0h6l2 3-1 7-8 1-2-3 1-7z" fill="#020228"/>
<path transform="translate(491,1423)" d="m0 0v3l-6 10-11 12-4 4-13 8-3 1 1-3 14-9 7-6 11-15z" fill="#290248"/>
<path transform="translate(1623,806)" d="m0 0 8 1 10 3 10 5 4 4v5h-2l-1-5-5-4-15-5-8-2v5l10 5-10-1-3-5z" fill="#240244"/>
<path transform="translate(509,276)" d="m0 0 4 1 3 3v6l-4 2-5-1-2-4 1-4z" fill="#240445"/>
<path transform="translate(533,199)" d="m0 0 4 1 2 3v5l-4 3-4-1-3-3 1-5z" fill="#120435"/>
<path transform="translate(1119,681)" d="m0 0 4 3 1 10-3 6-5 4-4 2h-7l-5-2-4-5-2-4v-8l2-2v8l3 6 5 4h9l6-4 2-3v-10z" fill="#260345"/>
<path transform="translate(1595,387)" d="m0 0 4 2 1 2 1 12 6 7v2l-4 1-7-11 1-10h-2l-2-4z" fill="#310451"/>
<path transform="translate(490,229)" d="m0 0h1l2 6 13 13v4l-6-1-7-7 3-1-2-4h-2l-2-4z" fill="#C505E7"/>
<path transform="translate(530,1285)" d="m0 0h5l3 3v6l-2 2h-5l-4-4 1-5z" fill="#020725"/>
<path transform="translate(1564,673)" d="m0 0 9 1 1 1 1 14-2 4h-10l1-3 8 1-1-3v-11l-8-1-1 4v-6z" fill="#320254"/>
<path transform="translate(547,381)" d="m0 0h5l3 3-1 7-2 1h-6l-2-7z" fill="#130334"/>
<path transform="translate(341,1469)" d="m0 0 3 1-1 6-5 4v-3l-6 3-16-1-1-4 3 2h14l7-7z" fill="#379EFA"/>
<path transform="translate(397,1372)" d="m0 0 2 1-3 8v11l4 8 7 6 4 2h15l-3 3h-10l-10-5-7-8-3-10 1-9z" fill="#032B48"/>
<path transform="translate(1006,920)" d="m0 0h3l2 8-2 5-10 1-8-2 2-5 3-3 2 1-2 2-1 4 11-1-1-7-1-2z" fill="#280C50"/>
<path transform="translate(1610,741)" d="m0 0 3 2 7 14 6-1-3 3-2 1h-7l-2-3-1-11z" fill="#0A2147"/>
<path transform="translate(1525,411)" d="m0 0h5l3 5-2 5-6 1-3-3v-5z" fill="#070C35"/>
<path transform="translate(1072,403)" d="m0 0 7 1 2 5-2 4-3 1-5-2-2-6z" fill="#11072F"/>
<path transform="translate(1559,207)" d="m0 0h6l2 6-3 5-6-1-2-2 1-6z" fill="#1A1046"/>
<path transform="translate(987,677)" d="m0 0h5l1 3v12l-1 10h-1v-23l-9 2-1 1-1 17-2 1v-17l3-4z" fill="#0C1E46"/>
<path transform="translate(1649,860)" d="m0 0 6 1 1 2h-5v36l3 1-4 1-1-1-1-31z" fill="#260345"/>
<path transform="translate(1557,200)" d="m0 0h8l5 3 3 4 1 4-3 9-5 5-1 13-2-1v-12l6-6 1-3v-9l-4-4-6-1-6 1z" fill="#032B48"/>
<path transform="translate(1525,207)" d="m0 0h5l3 3-1 6-4 2-5-2-1-6z" fill="#171446"/>
<path transform="translate(569,674)" d="m0 0h6l2 3-6 1-1 4v5h7l-3 3-7-2-3-5 1-5z" fill="#0A022F"/>
<path transform="translate(963,1329)" d="m0 0 1 2-2 10-4 7h-2l-1-10 4-6z" fill="#0A2247"/>
<path transform="translate(913,186)" d="m0 0 2 1-6 8-6 10-3 8-1 6v17h-7l4-2 1-17 2-9 6-12z" fill="#38A0FC"/>
<path transform="translate(1103,918)" d="m0 0h2l1 2 1 15-2 1-5-5v-6z" fill="#020229"/>
<path transform="translate(1008,359)" d="m0 0 4 2-1 2-3-1v25l-5 5-4 2 2-4 3-3 1-20 2-7z" fill="#032B48"/>
<path transform="translate(329,1514)" d="m0 0h6l2 3-1 7-4 1-3-2v-3h-2l1-5z" fill="#050931"/>
<path transform="translate(1025,1428)" d="m0 0m4 0 5 2v7h-2v2l-7 1-2-4v-5l2-1v3l5-1v-2l-3-1z" fill="#330251"/>
<path transform="translate(1468,320)" d="m0 0 4 3 12 1 3 2v4l-2 1-11 1-9 7-3-1 4-2 4-5 9-2 3-1 1-2-12-1-3-3z" fill="#38A0FC"/>
<path transform="translate(1661,322)" d="m0 0 5 1 3 4-2 5-3 1-5-3-1-5z" fill="#1B043D"/>
<path transform="translate(491,160)" d="m0 0v3l-8 8-7 5 2-4zm-17 16h2l-2 4-8 8-8 1-1-5 2-1 2 4h3l1-2 5-5h2z" fill="#330254"/>
<path transform="translate(1607,412)" d="m0 0h1v10l-4 5-6 3-9-1-5-5-1-3h2l5 5h11l4-6 1-7z" fill="#370256"/>
<path transform="translate(1607,368)" d="m0 0 2 1-12 6-55-1v-1l53-1 10-3z" fill="#260345"/>
<path transform="translate(1051,757)" d="m0 0 2 4-5 3-13 4-9-2-8-3-1-2 10 2 4 2 16-3 4-1z" fill="#430261"/>
<path transform="translate(942,403)" d="m0 0h5l1 1v8l-1 1h-6l-2-2 1-7z" fill="#060D35"/>
<path transform="translate(1125,381)" d="m0 0h6l2 4-1 5-6 1-3-3 1-6z" fill="#260345"/>
<path transform="translate(470,1477)" d="m0 0h7l6 3 5 6v8l-2 1-2-10-3-4-3-1h-7l-5 2-2 4h-2l2-7z" fill="#260345"/>
<path transform="translate(582,279)" d="m0 0 5 2 1 6-1 2h-6l-3-3v-5z" fill="#14052E"/>
<path transform="translate(1060,1331)" d="m0 0 4 4 1 2v7l-3 6-5 5-5 3h-10l-4-5v-2h2l4 4 6 1 6-3 6-7 1-7-3-6z" fill="#260345"/>
<path transform="translate(910,944)" d="m0 0h5v10h-1v-8l-15 4h-23l4-2 21-1z" fill="#38A0FC"/>
<path transform="translate(1027,919)" d="m0 0h2v32l-2 5-4-1 1-2 2 1z" fill="#DC01FA"/>
<path transform="translate(430,785)" d="m0 0 5 1 1 7-1 2-5 1-4-4v-4h2v-2z" fill="#38A0FC"/>
<path transform="translate(1559,389)" d="m0 0 5 1 1 2 1 11 7 8v10h-1l-3-12-6-5v-10l-3 3h-2v-6z" fill="#032B48"/>
<path transform="translate(979,1309)" d="m0 0 5 1 4 3-1 4-14-2v-3z" fill="#38A0FC"/>
<path transform="translate(1634,818)" d="m0 0 8 1 2 3-6 3-21 3h-7l3-2 27-4v-2l-6-1z" fill="#260345"/>
<path transform="translate(1662,356)" d="m0 0 5 2 1 1v6l-6 2-3-3v-6z" fill="#16053A"/>
<path transform="translate(479,202)" d="m0 0 1 3-2 9 4 5 4 3 1 9-2 3-1-8-8-10-1-9z" fill="#5C027B"/>
<path transform="translate(485,698)" d="m0 0 9 1 15 5 12 6-2 1-21-8-14-3z" fill="#320251"/>
<path transform="translate(520,159)" d="m0 0 4 2 12 12 3 5v13l3 5-4-2-2-3v-12l-3-6-13-13z" fill="#260345"/>
<path transform="translate(1477,1323)" d="m0 0 3 3-4 4-2 9h-3l-1-1v-8l3-5z" fill="#032B48"/>
<path transform="translate(448,966)" d="m0 0 2 1v10l-3 7-5 4h-15l-4-3v-3l-3-1 2-3 4 6 5 2h9l5-3 3-8z" fill="#0E1D47"/>
<path transform="translate(1107,236)" d="m0 0 2 1-9 7-5 6-1 4 5-1 6-6 2 1-9 9h-5l-2-2 1-7 8-7z" fill="#260345"/>
<path transform="translate(910,878)" d="m0 0 7 1v48l-2 3 1-50-7 3-3-1z" fill="#38A0FC"/>
<path transform="translate(1594,410)" d="m0 0 5 2 2 2-1 7-5 1-5-2-1-5 2-1 1 5 2-2v-3h3v-2h-3z" fill="#310254"/>
<path transform="translate(1476,1401)" d="m0 0 2 1v8l-3 12-4 1-1-4 3-5 2-1v-11z" fill="#032B48"/>
<path transform="translate(920,973)" d="m0 0 2 3 40 1v1l-19 1h-23z" fill="#240445"/>
<path transform="translate(1059,969)" d="m0 0 3 1-6 6h-9l-2-1 1-3z" fill="#040916"/>
<path transform="translate(424,767)" d="m0 0h14l5 2v1l-9-1 1 3-4 1-7-2-1-3z" fill="#070C32"/>
<path transform="translate(1671,318)" d="m0 0 5 5 1 8-2 5-6 5h-9l-6-4-1-2 6 3h10l5-5v-9l-3-4z" fill="#260345"/>
<path transform="translate(1625,1376)" d="m0 0 4 2-1 5-3 4h-3l-2-3 1-6z" fill="#030817"/>
<path transform="translate(1e3 677)" d="m0 0h3l1 4h-2l2 3v8l-1 1-1 7h-2z" fill="#03061B"/>
<path transform="translate(1015,683)" d="m0 0 1 3 3-1v18h-4z" fill="#38A0FC"/>
<path transform="translate(1591,364)" d="m0 0h5l-1 3h-59v-1l55-1z" fill="#310250"/>
<path transform="translate(1598,1389)" d="m0 0h12l8 6h8l-3 3-7-1-6-5h-18l3-2z" fill="#280247"/>
<path transform="translate(1118,879)" d="m0 0h4l7 5v2l4 2-1 5-8-5-4-6z" fill="#05022B"/>
<path transform="translate(1035,1308)" d="m0 0 9 1 1 4-7 1-3 1h-4l1-5z" fill="#032B48"/>
<path transform="translate(1583,1358)" d="m0 0 5 2 2 2 8 2h10v3h-13l-8-2-4-4z" fill="#410360"/>
<path transform="translate(1696,250)" d="m0 0h2l3 10v9l-3 8-8 9-2-1 7-8 3-6v-14z" fill="#260345"/>
<path transform="translate(1562,1314)" d="m0 0 2 1 1 7-4 1-3 6-5 3h-7l4-2 5-2z" fill="#042E4D"/>
<path transform="translate(1009,694)" d="m0 0 2 2v10l-1 1h-6l-1-6 2-2h3z" fill="#030816"/>
<path transform="translate(1601,172)" d="m0 0 3 1-1 4-7 8h-3l1-5 4-6z" fill="#032B48"/>
<path transform="translate(1606,1420)" d="m0 0 7 1 1 2h-8l-6 3-2 5-1 6 1 3-3-1-1-5 3-8 6-5z" fill="#260345"/>
<path transform="translate(1474,1381)" d="m0 0h1v5l-1 5 1 4-4 1-3-4 3-10z" fill="#032B48"/>
<path transform="translate(1065,972)" d="m0 0h2v2l7-2h4l1 5h-16v-3z" fill="#040916"/>
<path transform="translate(487,923)" d="m0 0h1v18l-4 7-4 2 4-8 1-13h2z" fill="#7A059C"/>
<path transform="translate(1e3 675)" d="m0 0 4 1h-3v24l3-1v8h6v1h-8l-2-2-1-10z" fill="#110C3C"/>
<path transform="translate(1008,395)" d="m0 0 5 1 2 3-1 4-5 1-4-3 1-4h2z" fill="#090531"/>
<path transform="translate(1704,240)" d="m0 0 4 1 3 7-1 6-3-1-3-7-1-4z" fill="#030818"/>
<path transform="translate(416,1481)" d="m0 0 5 1 2 5v12l-2 4-1-2v-15l-1-3-2 2v8l-2 4-1-2 1-12z" fill="#032B48"/>
<path transform="translate(417,1270)" d="m0 0 1 3h2v15l-4 1v-15z" fill="#379EF9"/>
<path transform="translate(416,1268)" d="m0 0h1v20h-3l-1-2v-13z" fill="#260345"/>
<path transform="translate(574,864)" d="m0 0 1 2-4 8 1 5-4 4h-3l-2 4 1-5 9-17z" fill="#12042F"/>
<path transform="translate(498,203)" d="m0 0 3 3 1 8-3 6-5 2-2 10h-1l-1-10 2-2 5-2 2-3v-8z" fill="#3E025D"/>
<path transform="translate(558,675)" d="m0 0 1 2-1 7 3 6 6 5 5 1 7-1-3 3h-8l-6-2-6-10v-8z" fill="#260345"/>
<path transform="translate(1598,346)" d="m0 0h4v6l-5 4-3-2v-5z" fill="#030817"/>
<path transform="translate(1071,1414)" d="m0 0 6 1 2 3-1 7-3 2-4-1-4-4v-5zm-1 2-2 4 5 5 4-2v-5l-2-2z" fill="#260345"/>
<path transform="translate(449,1423)" d="m0 0 5 1 6 2-1 2-11-1-5 3-5 1 1-3z" fill="#5E027D"/>
<path transform="translate(1054,1319)" d="m0 0 5 2 1 5 1 3-2 2-7-6 1-5z" fill="#410E6C"/>
<path transform="translate(1048,345)" d="m0 0 2 1h3v10l-4-1v10h-1z" fill="#DC01FA"/>
<path transform="translate(548,1371)" d="m0 0 5 5 5 8-1 5-3 5-7 8v-3l8-11-1-7-6-8z" fill="#260345"/>
<path transform="translate(1127,931)" d="m0 0 4 1 3 3v5h-6l-2-4z" fill="#020229"/>
<path transform="translate(576,838)" d="m0 0h2l-1 7-3 4-4 1 1-8z" fill="#030818"/>
<path transform="translate(922,752)" d="m0 0 1 4v10l-2 2-3-2v-9z" fill="#032B48"/>
<path transform="translate(1041,290)" d="m0 0 6 1 2 4-3 3-5-1v-2h-2l1-4z" fill="#5F0782"/>
<path transform="translate(303,1477)" d="m0 0h4l1 2v6l-5 1-2-2v-6z" fill="#02032A"/>
<path transform="translate(559,379)" d="m0 0 4 4 1 7-4 6-6 4h-6l1-2 8-3 4-5-1-7z" fill="#260345"/>
<path transform="translate(1692,1491)" d="m0 0 2 1-4 3-3 1-21 1v-2l20-2z" fill="#260345"/>
<path transform="translate(457,771)" d="m0 0h2l1 4 2 1 2 10v9h-2l-2-10v-3l-1-6z" fill="#032B48"/>
<path transform="translate(466,761)" d="m0 0 4 1 4 4v3l3 3-1 3v-2l-4-1-2-1-1-7h-3l-4 2z" fill="#37055C"/>
<path transform="translate(1077,730)" d="m0 0 4 1 6 5v3l-6-1-4-3z" fill="#030816"/>
<path transform="translate(1579,1333)" d="m0 0 2 1-2 5v8l1 2-1 2 2 1 2 3-1 3-5-8-1-3v-10z" fill="#3E025C"/>
<path transform="translate(1119,896)" d="m0 0 4 1 3 4-1 3-3-4-1 3v16h-2z" fill="#260345"/>
<path transform="translate(1558,413)" d="m0 0h6l1 1v6h-7l-1-1v-5z" fill="#06022C"/>
<path transform="translate(554,190)" d="m0 0 7 1 5 3h-3l-3-1h-7l-1 4 6 1 5 3-2 1-10-4-1-1v-5z" fill="#260345"/>
<path transform="translate(1634,1362)" d="m0 0v3l-2 7 1 10-3 3-2-1 3-3-1-5-2-2v-5z" fill="#260345"/>
<path transform="translate(489,1440)" d="m0 0v3l-2 2v3l5-1-1 2-9 4-4-1 5-6h2l2-4z" fill="#260345"/>
<path transform="translate(1153,249)" d="m0 0 4 2 2 4v6l-4-1-4-8 1-2z" fill="#030817"/>
<path transform="translate(1597,207)" d="m0 0 4 3-1 5-3 3-5-1-3-3 1-4 2 1v2l5 1z" fill="#5F027D"/>
<path transform="translate(502,1247)" d="m0 0h5l1 2-6 1v6l4 1 2-1 1-6 2 4-2 4-6 1-4-4v-5z" fill="#260345"/>
<path transform="translate(1076,745)" d="m0 0 5 2 2 3-6-1 1 27 1 2h-3l-1-30z" fill="#1E0B45"/>
<path transform="translate(1040,187)" d="m0 0 1 3v2l4-1 3-1-2 4-5 3-5-3 2-5z" fill="#460265"/>
<path transform="translate(1043,252)" d="m0 0h3l2 3v6l-5 2-3-1 1-3h5l-1-2-4-2z" fill="#4E036D"/>
<path transform="translate(1606,1422)" d="m0 0m-3 1 6 1v3l-6 4-2-1v-2h-2l2-4z" fill="#AA0AD1"/>
<path transform="translate(1653,1419)" d="m0 0 6 1 1 6h-2l-1-4-4 1-7 7-4 1 5-5z" fill="#260345"/>
<path transform="translate(1590,1346)" d="m0 0 5 1 2 4 2 1-6 2-4-4z" fill="#040916"/>
<path transform="translate(407,1324)" d="m0 0h21l5 2 1 2-2 4-1-5-24-2z" fill="#032B48"/>
<path transform="translate(554,868)" d="m0 0h6l-2 5-2 3-4-1-1-3 1-2h2z" fill="#030818"/>
<path transform="translate(989,1428)" d="m0 0h6l2 2v6h-3v-4l-7-1v4h-2l1-5z" fill="#181246"/>
<path transform="translate(530,1285)" d="m0 0h5l3 3v6l-2 2h-5l1-2h3v-6h-5v5l-3-1 1-5z" fill="#260345"/>
<path transform="translate(585,340)" d="m0 0h2v7l-6 4-2-1 1-4z" fill="#03071A"/>
<path transform="translate(1514,175)" d="m0 0 5 2 8 8 5 1-1 3-5-2-12-10z" fill="#191146"/>
<path transform="translate(473,686)" d="m0 0 4 1-1 2-39-1v-1z" fill="#350355"/>
<path transform="translate(1594,206)" d="m0 0h2l2 4-1 5-5-2-2-1 1-4z" fill="#230347"/>
<path transform="translate(332,1376)" d="m0 0 2 2 1 18-2-2-2-6v-10z" fill="#032B48"/>
<path transform="translate(1606,1346)" d="m0 0h5v5l-1 1h-7v-4z" fill="#040916"/>
<path transform="translate(980,1329)" d="m0 0 2 3 3 6 9 6 5-1-1 3-7-1-5-2v-2h-2l-4-7z" fill="#111A46"/>
<path transform="translate(1560,1306)" d="m0 0 4 2 1 4 3 1-1 7-2 2-2-4-2-9z" fill="#38A0FC"/>
<path transform="translate(1511,359)" d="m0 0 5 2 4 5-6 1-5-5z" fill="#030816"/>
<path transform="translate(1041,308)" d="m0 0h7l4 3v2l-10-1-5 1z" fill="#5A047A"/>
<path transform="translate(433,186)" d="m0 0 6 1 1 9-3 1-4-9z" fill="#040916"/>
<path transform="translate(1084,971)" d="m0 0h5l2 6h-8l-1-5z" fill="#040916"/>
<path transform="translate(496,349)" d="m0 0 7 6 2 4v9l-2-3-2-8-4-4v-2l-2-1z" fill="#DC01FA"/>
<path transform="translate(1059,247)" d="m0 0 4 1v6l-4 4-3-1v-2h2l1-6-2-1z" fill="#030817"/>
<path transform="translate(460,1467)" d="m0 0 3 1-2 2-11 3-7-1v-1l10-2z" fill="#5E027D"/>
<path transform="translate(416,1418)" d="m0 0h4l1 6-1 1h-5l-1-5z" fill="#124C7B"/>
<path transform="translate(482,907)" d="m0 0 10 3 7 3 1 2-10-2-9-4z" fill="#4D026B"/>
<path transform="translate(1548,413)" d="m0 0h1v8h2l4 5 9 2v1h-11l-2-2v-3h-2l-1-2z" fill="#171446"/>
<path transform="translate(350,303)" d="m0 0h6l1 3-4 4-6 3-2-1 1-2 7-4-6-1z" fill="#38A0FC"/>
<path transform="translate(301,1383)" d="m0 0h6l1 4-2 2h-5l-1-5z" fill="#226FB1"/>
<path transform="translate(1583,1300)" d="m0 0 3 2 11 1-4 4-6-1-4-3z" fill="#5A037A"/>
<path transform="translate(521,711)" d="m0 0 5 2 9 7 7 7-1 2-9-9-10-7z" fill="#260345"/>
<path transform="translate(1572,700)" d="m0 0 2 1-2 7-3 1-2-1-1-6h6z" fill="#16023B"/>
<path transform="translate(889,382)" d="m0 0 6 1-1 7-5-2-2-2z" fill="#020329"/>
<path transform="translate(394,365)" d="m0 0 2 1-3 8h-2v11l-2-1v-9z" fill="#191146"/>
<path transform="translate(1458,357)" d="m0 0 5 1-1 7-6-1v-5z" fill="#020329"/>
<path transform="translate(1555,302)" d="m0 0h6v4l-2 2h-5l-1-3z" fill="#030817"/>
<path transform="translate(1068,241)" d="m0 0 4 4 3 7-1 7-5 4-2-1 6-7-2-6-3-6z" fill="#260345"/>
<path transform="translate(491,160)" d="m0 0v3l-8 8-7 5 2-4zm-17 16 2 1-4 2z" fill="#5B0279"/>
<path transform="translate(987,1478)" d="m0 0h22v1l-22 1v2h7v1h-8l-2-4z" fill="#032B48"/>
<path transform="translate(1036,691)" d="m0 0h3l2 1-1 9-4-2-1-5z" fill="#DC01FA"/>
<path transform="translate(419,1503)" d="m0 0v3l-5 5-3 5-3 1v2h-2v2h-2l2-4z" fill="#101B46"/>
<path transform="translate(470,1448)" d="m0 0m-1 1 3 2-17 10v-3z" fill="#620281"/>
<path transform="translate(1588,1323)" d="m0 0 3 2-5 4h-2l-2 5-2-4 4-5z" fill="#69058A"/>
<path transform="translate(1586,1292)" d="m0 0 5 3 9 1v2h-6l-4 1-6-5z" fill="#6A048A"/>
<path transform="translate(421,1273)" d="m0 0h1v15l-2 3-4-1 3-2 1-14z" fill="#032B48"/>
<path transform="translate(434,1249)" d="m0 0 2 3-10 8-3 4-2 2v-4z" fill="#420B6A"/>
<path transform="translate(338,1515)" d="m0 0 4 1 2 1-1 5-6 4 1-9z" fill="#032B48"/>
<path transform="translate(315,1486)" d="m0 0v3l-5 4-6 1-7-2-2-4 6 3 10-1z" fill="#38A0FC"/>
<path transform="translate(1607,1355)" d="m0 0m-16 1h16l-1 3-9 1-6-3z" fill="#4C026B"/>
<path transform="translate(1065,263)" d="m0 0 2 1-2 3-1 12-2 3-1-12 3-6z" fill="#210845"/>
<path transform="translate(1532,151)" d="m0 0 2 1-9 7-7 7v2h-2l-1-3 10-9z" fill="#170C40"/>
<path transform="translate(462,1386)" d="m0 0 4 1v9h-3l-2-6z" fill="#032B48"/>
<path transform="translate(415,1296)" d="m0 0h9l7 1 1 3-10-1-7-2z" fill="#032B48"/>
<path transform="translate(967,837)" d="m0 0 4 2 7 6v2l5 1 4 3-5-1-7-3-8-9z" fill="#082447"/>
<path transform="translate(1597,392)" d="m0 0h1l1 10 1 4 4 2 2 4-3 1-7-11z" fill="#DC01FA"/>
<path transform="translate(1554,301)" d="m0 0h8l1 1v9l-4 1 1-2h2l-1-7h-6l-4 4h-2l2-4z" fill="#0F103E"/>
<path transform="translate(1046,237)" d="m0 0 6 1v2l-8 3-5-5z" fill="#7E029D"/>
<path transform="translate(1474,1406)" d="m0 0h1v7l-5 8-2-2 1-4 3-4z" fill="#38A0FC"/>
<path transform="translate(1609,1288)" d="m0 0 1 4-3 3-7-1 3-4h5z" fill="#030818"/>
<path transform="translate(460,757)" d="m0 0 5 1-2 5-3 1-2 3v-5-3h2z" fill="#38A0FC"/>
<path transform="translate(1126,382)" d="m0 0 5 2v5l-4 1-2-3z" fill="#020226"/>
<path transform="translate(1653,316)" d="m0 0h2l-2 5-2 2-5-1 2-4z" fill="#030817"/>
<path transform="translate(333,1474)" d="m0 0 2 1-3 3h-14l-1-2 14-1z" fill="#032B48"/>
<path transform="translate(538,907)" d="m0 0 4 1-2 6h-5l-1-2h2l1-4z" fill="#030719"/>
<path transform="translate(1665,732)" d="m0 0 2 2v10l-2 8h-1v-9z" fill="#030818"/>
<path transform="translate(567,676)" d="m0 0v3 5l3 3h7l-3 3-7-2-3-5 1-5z" fill="#260345"/>
<path transform="translate(478,218)" d="m0 0 4 1 4 3 1 9-2 3-1-8z" fill="#7E029C"/>
<path transform="translate(1008,145)" d="m0 0 14 2-4 4-7-1 2-1v-2h-8z" fill="#38A0FC"/>
<path transform="translate(1641,1368)" d="m0 0h2v2l2 1-3 8-2-2v-7z" fill="#03071A"/>
<path transform="translate(996,924)" d="m0 0 2 1-2 2-1 4h5l-1 3-8-2 2-5z" fill="#161446"/>
<path transform="translate(1580,701)" d="m0 0h3l2 9-5 1v-4z" fill="#4D0370"/>
<path transform="translate(1687,295)" d="m0 0 3 1-6 4-3 1h-7l1-2 11-3z" fill="#260345"/>
<path transform="translate(976,254)" d="m0 0 4 2v5l-5-1-1-5z" fill="#38A0FC"/>
<path transform="translate(437,1472)" d="m0 0h6l-1 3-13 1-1-3h9z" fill="#5D027B"/>
<path transform="translate(416,1416)" d="m0 0 6 2v2h2l-1 5h-2l-1 2-5-1v-1l5-1v-6h-4z" fill="#260345"/>
<path transform="translate(1587,728)" d="m0 0 12 1 5 3-3 1-2-1-11-1z" fill="#230545"/>
<path transform="translate(1126,904)" d="m0 0 2 1 4 13v5l-2-2z" fill="#260345"/>
<path transform="translate(1035,311)" d="m0 0 1 3-5 4-4 3-3-1 5-5z" fill="#8503A5"/>
<path transform="translate(1137,254)" d="m0 0 4 1 3 2-1 5-1-2-4-1z" fill="#030816"/>
<path transform="translate(545,1402)" d="m0 0v3l-11 12-2-1 12-13z" fill="#260345"/>
<path transform="translate(1041,755)" d="m0 0h8l2 1-1 2-12 1 2-1z" fill="#6C028B"/>
<path transform="translate(1103,687)" d="m0 0h1l2 7 5 1 3-1v2l-6 2-5-3-1-6z" fill="#260345"/>
<path transform="translate(1563,676)" d="m0 0h1l1 10 2 4 3-1v2h-6l-2-2z" fill="#030227"/>
<path transform="translate(1583,421)" d="m0 0h2l5 5 9 1v1l-10 1-5-5z" fill="#660285"/>
<path transform="translate(1590,403)" d="m0 0 2 2-3 2v-3zm-3 3m-1 1 2 2h-3zm-2 2m-1 1 2 3h-2l1 5-2 3v-9z" fill="#5A0279"/>
<path transform="translate(1607,368)" d="m0 0 2 1-12 6h-5l3-3 10-3z" fill="#4F026D"/>
<path transform="translate(1660,325)" d="m0 0h6v6l-4 1v-4h-2z" fill="#022141"/>
<path transform="translate(976,292)" d="m0 0 4 2-1 5-4-1-1-4z" fill="#38A0FC"/>
<path transform="translate(507,278)" d="m0 0h5l2 2-1 5-2-1v-2l-4-1z" fill="#030229"/>
<path transform="translate(1007,150)" d="m0 0 9 1-1 2h-12v-2z" fill="#032B48"/>
<path transform="translate(1598,1426)" d="m0 0 1 3-2 8 1 3-3-1-1-5 3-7z" fill="#620281"/>
<path transform="translate(1017,761)" d="m0 0 10 2 3 1 1 3-9-2-5-3z" fill="#560275"/>
<path transform="translate(452,750)" d="m0 0 6 1 3 4-5 2-3-5z" fill="#080621"/>
<path transform="translate(1039,295)" d="m0 0h2l1 2 6-1v4l-5 1-4-3z" fill="#220745"/>
<path transform="translate(577,257)" d="m0 0h2l-1 3h-2l-2 4h-2v2l-4 3-2-1z" fill="#140237"/>
<path transform="translate(484,197)" d="m0 0h7l5 2v2l-3-1h-8l-6 2z" fill="#260345"/>
<path transform="translate(416,1270)" d="m0 0 1 4v14h-3l1-15z" fill="#032B48"/>
<path transform="translate(1106,970)" d="m0 0 5 1 1 2-1 3h-5z" fill="#040916"/>
<path transform="translate(1623,808)" d="m0 0 1 2 1 4 9 3v1l-10-1-3-5z" fill="#260345"/>
<path transform="translate(1641,752)" d="m0 0 1 4-9 8-5 1 5-4 5-5z" fill="#1F0240"/>
<path transform="translate(1663,357)" d="m0 0 4 1-1 7h-3l1-4-1-1h-2v-2z" fill="#060521"/>
<path transform="translate(1442,1480)" d="m0 0 2 3-2 2-6-1-3-2z" fill="#040916"/>
<path transform="translate(1476,1426)" d="m0 0h3l3 4v3l-4-1-3-4z" fill="#032B48"/>
<path transform="translate(447,1424)" d="m0 0 2 1-4 4-7 2 1-3z" fill="#530272"/>
<path transform="translate(384,1402)" d="m0 0 5 1-1 4-4 1-1-4z" fill="#38A0FC"/>
<path transform="translate(1016,399)" d="m0 0 4 4-1 3-3 1v-2l-4-1z" fill="#38A0FC"/>
<path transform="translate(1559,389)" d="m0 0 5 1-3 7h-3v-6z" fill="#063354"/>
<path transform="translate(1611,375)" d="m0 0v3l-9 3-5-1v-1l12-3z" fill="#4D026B"/>
<path transform="translate(1697,1453)" d="m0 0h2l2 5 4 2h-10z" fill="#030817"/>
<path transform="translate(415,1440)" d="m0 0h9l1 3h-10z" fill="#124D7D"/>
<path transform="translate(1575,1393)" d="m0 0 8 4 4 3h-6l-8-5z" fill="#520574"/>
<path transform="translate(1038,1351)" d="m0 0h2l4 4 6 2v1h-8l-4-5z" fill="#4D046D"/>
<path transform="translate(1583,876)" d="m0 0 6 1 2 3-5 1-4-4z" fill="#032B48"/>
<path transform="translate(1526,208)" d="m0 0 3 1 1 1v5l-3 1-2-5z" fill="#04022B"/>
<path transform="translate(321,1523)" d="m0 0 5 4 7 3v1l-7-1-5-5z" fill="#38A0FC"/>
<path transform="translate(1155,1493)" d="m0 0 2 3-1 2h-2l-1 3-3-3v-2z" fill="#030816"/>
<path transform="translate(1710,1467)" d="m0 0 2 2v6l-4 3 1-7z" fill="#030816"/>
<path transform="translate(383,1365)" d="m0 0 5 1v5l-4-1z" fill="#38A0FC"/>
<path transform="translate(1073,1336)" d="m0 0 4 1-1 4-2 5h-1z" fill="#030817"/>
<path transform="translate(484,1322)" d="m0 0 1 2 6 2v4l-4-2v-2l-4-2z" fill="#020229"/>
<path transform="translate(1037,1284)" d="m0 0 2 1-1 3h-3v2l-3 2-4-1 8-5z" fill="#630383"/>
<path transform="translate(1009,923)" d="m0 0 2 4-2 6h-8v-1l6-1z" fill="#032B48"/>
<path transform="translate(1623,363)" d="m0 0 1 2-6 8-4 3-2-1 7-6z" fill="#260345"/>
<path transform="translate(1113,193)" d="m0 0 5 1 2 2-1 4-3-1z" fill="#030817"/>
<path transform="translate(1043,187)" d="m0 0h2v2l2 1-3 3-4-1 1-4z" fill="#032B48"/>
</svg>
